<svg width="39" height="21" viewBox="0 0 39 21" fill="none" xmlns="http://www.w3.org/2000/svg">
<path d="M5.88 20.52V0.779999H7.602V20.52H5.88ZM6.531 18.21C5.383 18.21 4.284 18.049 3.234 17.727C2.184 17.391 1.351 16.964 0.735 16.446L1.68 14.325C2.268 14.787 2.996 15.172 3.864 15.48C4.732 15.788 5.621 15.942 6.531 15.942C7.301 15.942 7.924 15.858 8.4 15.69C8.876 15.522 9.226 15.298 9.45 15.018C9.674 14.724 9.786 14.395 9.786 14.031C9.786 13.583 9.625 13.226 9.303 12.96C8.981 12.68 8.561 12.463 8.043 12.309C7.539 12.141 6.972 11.987 6.342 11.847C5.726 11.707 5.103 11.546 4.473 11.364C3.857 11.168 3.29 10.923 2.772 10.629C2.268 10.321 1.855 9.915 1.533 9.411C1.211 8.907 1.05 8.263 1.05 7.479C1.05 6.681 1.26 5.953 1.68 5.295C2.114 4.623 2.765 4.091 3.633 3.699C4.515 3.293 5.628 3.09 6.972 3.09C7.854 3.09 8.729 3.202 9.597 3.426C10.465 3.65 11.221 3.972 11.865 4.392L11.004 6.513C10.346 6.121 9.667 5.834 8.967 5.652C8.267 5.456 7.595 5.358 6.951 5.358C6.195 5.358 5.579 5.449 5.103 5.631C4.641 5.813 4.298 6.051 4.074 6.345C3.864 6.639 3.759 6.975 3.759 7.353C3.759 7.801 3.913 8.165 4.221 8.445C4.543 8.711 4.956 8.921 5.46 9.075C5.978 9.229 6.552 9.383 7.182 9.537C7.812 9.677 8.435 9.838 9.051 10.02C9.681 10.202 10.248 10.44 10.752 10.734C11.27 11.028 11.683 11.427 11.991 11.931C12.313 12.435 12.474 13.072 12.474 13.842C12.474 14.626 12.257 15.354 11.823 16.026C11.403 16.684 10.752 17.216 9.87 17.622C8.988 18.014 7.875 18.21 6.531 18.21ZM13.942 18V16.173L19.78 10.629C20.27 10.167 20.634 9.761 20.872 9.411C21.11 9.061 21.264 8.739 21.334 8.445C21.418 8.137 21.46 7.85 21.46 7.584C21.46 6.912 21.229 6.394 20.767 6.03C20.305 5.652 19.626 5.463 18.73 5.463C18.016 5.463 17.365 5.589 16.777 5.841C16.203 6.093 15.706 6.478 15.286 6.996L13.375 5.526C13.949 4.756 14.719 4.161 15.685 3.741C16.665 3.307 17.757 3.09 18.961 3.09C20.025 3.09 20.949 3.265 21.733 3.615C22.531 3.951 23.14 4.434 23.56 5.064C23.994 5.694 24.211 6.443 24.211 7.311C24.211 7.787 24.148 8.263 24.022 8.739C23.896 9.201 23.658 9.691 23.308 10.209C22.958 10.727 22.447 11.308 21.775 11.952L16.756 16.719L16.189 15.69H24.778V18H13.942ZM32.4857 18.21C31.3237 18.21 30.2737 17.916 29.3357 17.328C28.4117 16.74 27.6837 15.886 27.1517 14.766C26.6197 13.632 26.3537 12.26 26.3537 10.65C26.3537 9.04 26.6197 7.675 27.1517 6.555C27.6837 5.421 28.4117 4.56 29.3357 3.972C30.2737 3.384 31.3237 3.09 32.4857 3.09C33.6617 3.09 34.7117 3.384 35.6357 3.972C36.5597 4.56 37.2877 5.421 37.8197 6.555C38.3657 7.675 38.6387 9.04 38.6387 10.65C38.6387 12.26 38.3657 13.632 37.8197 14.766C37.2877 15.886 36.5597 16.74 35.6357 17.328C34.7117 17.916 33.6617 18.21 32.4857 18.21ZM32.4857 15.837C33.1717 15.837 33.7667 15.655 34.2707 15.291C34.7747 14.913 35.1667 14.339 35.4467 13.569C35.7407 12.799 35.8877 11.826 35.8877 10.65C35.8877 9.46 35.7407 8.487 35.4467 7.731C35.1667 6.961 34.7747 6.394 34.2707 6.03C33.7667 5.652 33.1717 5.463 32.4857 5.463C31.8277 5.463 31.2397 5.652 30.7217 6.03C30.2177 6.394 29.8187 6.961 29.5247 7.731C29.2447 8.487 29.1047 9.46 29.1047 10.65C29.1047 11.826 29.2447 12.799 29.5247 13.569C29.8187 14.339 30.2177 14.913 30.7217 15.291C31.2397 15.655 31.8277 15.837 32.4857 15.837Z" fill="#2B2626"/>
</svg>
