<svg width="671" height="59" viewBox="0 0 671 59" fill="none" xmlns="http://www.w3.org/2000/svg">
<mask id="path-1-outside-1_1_154" maskUnits="userSpaceOnUse" x="-1" y="-1" width="673" height="61" fill="black">
<rect fill="white" x="-1" y="-1" width="673" height="61"/>
<path d="M0.7 47L19.6 5H27.28L46.24 47H38.08L21.82 9.14H24.94L8.74 47H0.7ZM9.4 37.28L11.5 31.16H34.18L36.28 37.28H9.4ZM68.6214 47.42C66.0214 47.42 63.6414 46.82 61.4814 45.62C59.3614 44.42 57.6614 42.62 56.3814 40.22C55.1414 37.78 54.5214 34.7 54.5214 30.98C54.5214 27.22 55.1214 24.14 56.3214 21.74C57.5614 19.34 59.2414 17.56 61.3614 16.4C63.4814 15.2 65.9014 14.6 68.6214 14.6C71.7814 14.6 74.5614 15.28 76.9614 16.64C79.4014 18 81.3214 19.9 82.7214 22.34C84.1614 24.78 84.8814 27.66 84.8814 30.98C84.8814 34.3 84.1614 37.2 82.7214 39.68C81.3214 42.12 79.4014 44.02 76.9614 45.38C74.5614 46.74 71.7814 47.42 68.6214 47.42ZM50.8614 58.64V14.96H58.0014V22.52L57.7614 31.04L58.3614 39.56V58.64H50.8614ZM67.7814 41C69.5814 41 71.1814 40.6 72.5814 39.8C74.0214 39 75.1614 37.84 76.0014 36.32C76.8414 34.8 77.2614 33.02 77.2614 30.98C77.2614 28.9 76.8414 27.12 76.0014 25.64C75.1614 24.12 74.0214 22.96 72.5814 22.16C71.1814 21.36 69.5814 20.96 67.7814 20.96C65.9814 20.96 64.3614 21.36 62.9214 22.16C61.4814 22.96 60.3414 24.12 59.5014 25.64C58.6614 27.12 58.2414 28.9 58.2414 30.98C58.2414 33.02 58.6614 34.8 59.5014 36.32C60.3414 37.84 61.4814 39 62.9214 39.8C64.3614 40.6 65.9814 41 67.7814 41ZM109.754 47.42C107.154 47.42 104.774 46.82 102.614 45.62C100.494 44.42 98.7942 42.62 97.5142 40.22C96.2742 37.78 95.6542 34.7 95.6542 30.98C95.6542 27.22 96.2542 24.14 97.4542 21.74C98.6942 19.34 100.374 17.56 102.494 16.4C104.614 15.2 107.034 14.6 109.754 14.6C112.914 14.6 115.694 15.28 118.094 16.64C120.534 18 122.454 19.9 123.854 22.34C125.294 24.78 126.014 27.66 126.014 30.98C126.014 34.3 125.294 37.2 123.854 39.68C122.454 42.12 120.534 44.02 118.094 45.38C115.694 46.74 112.914 47.42 109.754 47.42ZM91.9942 58.64V14.96H99.1342V22.52L98.8942 31.04L99.4942 39.56V58.64H91.9942ZM108.914 41C110.714 41 112.314 40.6 113.714 39.8C115.154 39 116.294 37.84 117.134 36.32C117.974 34.8 118.394 33.02 118.394 30.98C118.394 28.9 117.974 27.12 117.134 25.64C116.294 24.12 115.154 22.96 113.714 22.16C112.314 21.36 110.714 20.96 108.914 20.96C107.114 20.96 105.494 21.36 104.054 22.16C102.614 22.96 101.474 24.12 100.634 25.64C99.7942 27.12 99.3742 28.9 99.3742 30.98C99.3742 33.02 99.7942 34.8 100.634 36.32C101.474 37.84 102.614 39 104.054 39.8C105.494 40.6 107.114 41 108.914 41ZM133.127 47V2.48H140.627V47H133.127ZM165.531 47.42C161.971 47.42 158.851 46.72 156.171 45.32C153.531 43.88 151.471 41.92 149.991 39.44C148.551 36.96 147.831 34.14 147.831 30.98C147.831 27.78 148.531 24.96 149.931 22.52C151.371 20.04 153.331 18.1 155.811 16.7C158.331 15.3 161.191 14.6 164.391 14.6C167.511 14.6 170.291 15.28 172.731 16.64C175.171 18 177.091 19.92 178.491 22.4C179.891 24.88 180.591 27.8 180.591 31.16C180.591 31.48 180.571 31.84 180.531 32.24C180.531 32.64 180.511 33.02 180.471 33.38H153.771V28.4H176.511L173.571 29.96C173.611 28.12 173.231 26.5 172.431 25.1C171.631 23.7 170.531 22.6 169.131 21.8C167.771 21 166.191 20.6 164.391 20.6C162.551 20.6 160.931 21 159.531 21.8C158.171 22.6 157.091 23.72 156.291 25.16C155.531 26.56 155.151 28.22 155.151 30.14V31.34C155.151 33.26 155.591 34.96 156.471 36.44C157.351 37.92 158.591 39.06 160.191 39.86C161.791 40.66 163.631 41.06 165.711 41.06C167.511 41.06 169.131 40.78 170.571 40.22C172.011 39.66 173.291 38.78 174.411 37.58L178.431 42.2C176.991 43.88 175.171 45.18 172.971 46.1C170.811 46.98 168.331 47.42 165.531 47.42ZM211.457 47L199.697 14.96H206.777L216.857 43.22H213.497L224.057 14.96H230.357L240.617 43.22H237.317L247.697 14.96H254.357L242.537 47H235.337L225.977 21.98H228.197L218.657 47H211.457ZM259.514 47V14.96H267.014V47H259.514ZM263.294 9.68C261.894 9.68 260.734 9.24 259.814 8.36C258.934 7.48 258.494 6.42 258.494 5.18C258.494 3.9 258.934 2.84 259.814 2C260.734 1.12 261.894 0.679999 263.294 0.679999C264.694 0.679999 265.834 1.1 266.714 1.94C267.634 2.74 268.094 3.76 268.094 5C268.094 6.32 267.654 7.44 266.774 8.36C265.894 9.24 264.734 9.68 263.294 9.68ZM276.858 47V14.96H283.998V23.78L283.158 21.2C284.118 19.04 285.618 17.4 287.658 16.28C289.738 15.16 292.318 14.6 295.398 14.6V21.74C295.078 21.66 294.778 21.62 294.498 21.62C294.218 21.58 293.938 21.56 293.658 21.56C290.818 21.56 288.558 22.4 286.878 24.08C285.198 25.72 284.358 28.18 284.358 31.46V47H276.858ZM316.527 47.42C312.967 47.42 309.847 46.72 307.167 45.32C304.527 43.88 302.467 41.92 300.987 39.44C299.547 36.96 298.827 34.14 298.827 30.98C298.827 27.78 299.527 24.96 300.927 22.52C302.367 20.04 304.327 18.1 306.807 16.7C309.327 15.3 312.187 14.6 315.387 14.6C318.507 14.6 321.287 15.28 323.727 16.64C326.167 18 328.087 19.92 329.487 22.4C330.887 24.88 331.587 27.8 331.587 31.16C331.587 31.48 331.567 31.84 331.527 32.24C331.527 32.64 331.507 33.02 331.467 33.38H304.767V28.4H327.507L324.567 29.96C324.607 28.12 324.227 26.5 323.427 25.1C322.627 23.7 321.527 22.6 320.127 21.8C318.767 21 317.187 20.6 315.387 20.6C313.547 20.6 311.927 21 310.527 21.8C309.167 22.6 308.087 23.72 307.287 25.16C306.527 26.56 306.147 28.22 306.147 30.14V31.34C306.147 33.26 306.587 34.96 307.467 36.44C308.347 37.92 309.587 39.06 311.187 39.86C312.787 40.66 314.627 41.06 316.707 41.06C318.507 41.06 320.127 40.78 321.567 40.22C323.007 39.66 324.287 38.78 325.407 37.58L329.427 42.2C327.987 43.88 326.167 45.18 323.967 46.1C321.807 46.98 319.327 47.42 316.527 47.42ZM338.791 47V2.48H346.291V47H338.791ZM371.195 47.42C367.635 47.42 364.515 46.72 361.835 45.32C359.195 43.88 357.135 41.92 355.655 39.44C354.215 36.96 353.495 34.14 353.495 30.98C353.495 27.78 354.195 24.96 355.595 22.52C357.035 20.04 358.995 18.1 361.475 16.7C363.995 15.3 366.855 14.6 370.055 14.6C373.175 14.6 375.955 15.28 378.395 16.64C380.835 18 382.755 19.92 384.155 22.4C385.555 24.88 386.255 27.8 386.255 31.16C386.255 31.48 386.235 31.84 386.195 32.24C386.195 32.64 386.175 33.02 386.135 33.38H359.435V28.4H382.175L379.235 29.96C379.275 28.12 378.895 26.5 378.095 25.1C377.295 23.7 376.195 22.6 374.795 21.8C373.435 21 371.855 20.6 370.055 20.6C368.215 20.6 366.595 21 365.195 21.8C363.835 22.6 362.755 23.72 361.955 25.16C361.195 26.56 360.815 28.22 360.815 30.14V31.34C360.815 33.26 361.255 34.96 362.135 36.44C363.015 37.92 364.255 39.06 365.855 39.86C367.455 40.66 369.295 41.06 371.375 41.06C373.175 41.06 374.795 40.78 376.235 40.22C377.675 39.66 378.955 38.78 380.075 37.58L384.095 42.2C382.655 43.88 380.835 45.18 378.635 46.1C376.475 46.98 373.995 47.42 371.195 47.42ZM403.359 47.42C400.679 47.42 398.099 47.08 395.619 46.4C393.179 45.68 391.239 44.82 389.799 43.82L392.679 38.12C394.119 39.04 395.839 39.8 397.839 40.4C399.839 41 401.839 41.3 403.839 41.3C406.199 41.3 407.899 40.98 408.939 40.34C410.019 39.7 410.559 38.84 410.559 37.76C410.559 36.88 410.199 36.22 409.479 35.78C408.759 35.3 407.819 34.94 406.659 34.7C405.499 34.46 404.199 34.24 402.759 34.04C401.359 33.84 399.939 33.58 398.499 33.26C397.099 32.9 395.819 32.4 394.659 31.76C393.499 31.08 392.559 30.18 391.839 29.06C391.119 27.94 390.759 26.46 390.759 24.62C390.759 22.58 391.339 20.82 392.499 19.34C393.659 17.82 395.279 16.66 397.359 15.86C399.479 15.02 401.979 14.6 404.859 14.6C407.019 14.6 409.199 14.84 411.399 15.32C413.599 15.8 415.419 16.48 416.859 17.36L413.979 23.06C412.459 22.14 410.919 21.52 409.359 21.2C407.839 20.84 406.319 20.66 404.799 20.66C402.519 20.66 400.819 21 399.699 21.68C398.619 22.36 398.079 23.22 398.079 24.26C398.079 25.22 398.439 25.94 399.159 26.42C399.879 26.9 400.819 27.28 401.979 27.56C403.139 27.84 404.419 28.08 405.819 28.28C407.259 28.44 408.679 28.7 410.079 29.06C411.479 29.42 412.759 29.92 413.919 30.56C415.119 31.16 416.079 32.02 416.799 33.14C417.519 34.26 417.879 35.72 417.879 37.52C417.879 39.52 417.279 41.26 416.079 42.74C414.919 44.22 413.259 45.38 411.099 46.22C408.939 47.02 406.359 47.42 403.359 47.42ZM434.238 47.42C431.558 47.42 428.978 47.08 426.498 46.4C424.058 45.68 422.118 44.82 420.678 43.82L423.558 38.12C424.998 39.04 426.718 39.8 428.718 40.4C430.718 41 432.718 41.3 434.718 41.3C437.078 41.3 438.778 40.98 439.818 40.34C440.898 39.7 441.438 38.84 441.438 37.76C441.438 36.88 441.078 36.22 440.358 35.78C439.638 35.3 438.698 34.94 437.538 34.7C436.378 34.46 435.078 34.24 433.638 34.04C432.238 33.84 430.818 33.58 429.378 33.26C427.978 32.9 426.698 32.4 425.538 31.76C424.378 31.08 423.438 30.18 422.718 29.06C421.998 27.94 421.638 26.46 421.638 24.62C421.638 22.58 422.218 20.82 423.378 19.34C424.538 17.82 426.158 16.66 428.238 15.86C430.358 15.02 432.858 14.6 435.738 14.6C437.898 14.6 440.078 14.84 442.278 15.32C444.478 15.8 446.298 16.48 447.738 17.36L444.858 23.06C443.338 22.14 441.798 21.52 440.238 21.2C438.718 20.84 437.198 20.66 435.678 20.66C433.398 20.66 431.698 21 430.578 21.68C429.498 22.36 428.958 23.22 428.958 24.26C428.958 25.22 429.318 25.94 430.038 26.42C430.758 26.9 431.698 27.28 432.858 27.56C434.018 27.84 435.298 28.08 436.698 28.28C438.138 28.44 439.558 28.7 440.958 29.06C442.358 29.42 443.638 29.92 444.798 30.56C445.998 31.16 446.958 32.02 447.678 33.14C448.398 34.26 448.758 35.72 448.758 37.52C448.758 39.52 448.158 41.26 446.958 42.74C445.798 44.22 444.138 45.38 441.978 46.22C439.818 47.02 437.238 47.42 434.238 47.42ZM466.579 47L485.479 5H493.159L512.119 47H503.959L487.699 9.14H490.819L474.619 47H466.579ZM475.279 37.28L477.379 31.16H500.059L502.159 37.28H475.279ZM516.74 47V14.96H524.24V47H516.74ZM520.52 9.68C519.12 9.68 517.96 9.24 517.04 8.36C516.16 7.48 515.72 6.42 515.72 5.18C515.72 3.9 516.16 2.84 517.04 2C517.96 1.12 519.12 0.679999 520.52 0.679999C521.92 0.679999 523.06 1.1 523.94 1.94C524.86 2.74 525.32 3.76 525.32 5C525.32 6.32 524.88 7.44 524 8.36C523.12 9.24 521.96 9.68 520.52 9.68ZM534.084 47V14.96H541.224V23.78L540.384 21.2C541.344 19.04 542.844 17.4 544.884 16.28C546.964 15.16 549.544 14.6 552.624 14.6V21.74C552.304 21.66 552.004 21.62 551.724 21.62C551.444 21.58 551.164 21.56 550.884 21.56C548.044 21.56 545.784 22.4 544.104 24.08C542.424 25.72 541.584 28.18 541.584 31.46V47H534.084ZM576.746 47.42C574.146 47.42 571.766 46.82 569.606 45.62C567.486 44.42 565.786 42.62 564.506 40.22C563.266 37.78 562.646 34.7 562.646 30.98C562.646 27.22 563.246 24.14 564.446 21.74C565.686 19.34 567.366 17.56 569.486 16.4C571.606 15.2 574.026 14.6 576.746 14.6C579.906 14.6 582.686 15.28 585.086 16.64C587.526 18 589.446 19.9 590.846 22.34C592.286 24.78 593.006 27.66 593.006 30.98C593.006 34.3 592.286 37.2 590.846 39.68C589.446 42.12 587.526 44.02 585.086 45.38C582.686 46.74 579.906 47.42 576.746 47.42ZM558.986 58.64V14.96H566.126V22.52L565.886 31.04L566.486 39.56V58.64H558.986ZM575.906 41C577.706 41 579.306 40.6 580.706 39.8C582.146 39 583.286 37.84 584.126 36.32C584.966 34.8 585.386 33.02 585.386 30.98C585.386 28.9 584.966 27.12 584.126 25.64C583.286 24.12 582.146 22.96 580.706 22.16C579.306 21.36 577.706 20.96 575.906 20.96C574.106 20.96 572.486 21.36 571.046 22.16C569.606 22.96 568.466 24.12 567.626 25.64C566.786 27.12 566.366 28.9 566.366 30.98C566.366 33.02 566.786 34.8 567.626 36.32C568.466 37.84 569.606 39 571.046 39.8C572.486 40.6 574.106 41 575.906 41ZM614.519 47.42C611.239 47.42 608.319 46.72 605.759 45.32C603.199 43.88 601.179 41.92 599.699 39.44C598.219 36.96 597.479 34.14 597.479 30.98C597.479 27.78 598.219 24.96 599.699 22.52C601.179 20.04 603.199 18.1 605.759 16.7C608.319 15.3 611.239 14.6 614.519 14.6C617.839 14.6 620.779 15.3 623.339 16.7C625.939 18.1 627.959 20.02 629.399 22.46C630.879 24.9 631.619 27.74 631.619 30.98C631.619 34.14 630.879 36.96 629.399 39.44C627.959 41.92 625.939 43.88 623.339 45.32C620.779 46.72 617.839 47.42 614.519 47.42ZM614.519 41C616.359 41 617.999 40.6 619.439 39.8C620.879 39 621.999 37.84 622.799 36.32C623.639 34.8 624.059 33.02 624.059 30.98C624.059 28.9 623.639 27.12 622.799 25.64C621.999 24.12 620.879 22.96 619.439 22.16C617.999 21.36 616.379 20.96 614.579 20.96C612.739 20.96 611.099 21.36 609.659 22.16C608.259 22.96 607.139 24.12 606.299 25.64C605.459 27.12 605.039 28.9 605.039 30.98C605.039 33.02 605.459 34.8 606.299 36.32C607.139 37.84 608.259 39 609.659 39.8C611.099 40.6 612.719 41 614.519 41ZM652.351 47.42C649.271 47.42 646.491 46.74 644.011 45.38C641.571 43.98 639.651 42.06 638.251 39.62C636.851 37.18 636.151 34.3 636.151 30.98C636.151 27.66 636.851 24.78 638.251 22.34C639.651 19.9 641.571 18 644.011 16.64C646.491 15.28 649.271 14.6 652.351 14.6C655.031 14.6 657.431 15.2 659.551 16.4C661.671 17.56 663.351 19.34 664.591 21.74C665.831 24.14 666.451 27.22 666.451 30.98C666.451 34.7 665.851 37.78 664.651 40.22C663.451 42.62 661.791 44.42 659.671 45.62C657.551 46.82 655.111 47.42 652.351 47.42ZM653.251 41C655.051 41 656.651 40.6 658.051 39.8C659.491 39 660.631 37.84 661.471 36.32C662.351 34.8 662.791 33.02 662.791 30.98C662.791 28.9 662.351 27.12 661.471 25.64C660.631 24.12 659.491 22.96 658.051 22.16C656.651 21.36 655.051 20.96 653.251 20.96C651.451 20.96 649.831 21.36 648.391 22.16C646.991 22.96 645.851 24.12 644.971 25.64C644.131 27.12 643.711 28.9 643.711 30.98C643.711 33.02 644.131 34.8 644.971 36.32C645.851 37.84 646.991 39 648.391 39.8C649.831 40.6 651.451 41 653.251 41ZM662.971 47V39.44L663.271 30.92L662.671 22.4V2.48H670.111V47H662.971Z"/>
</mask>
<path d="M0.7 47L-0.211922 46.5896L-0.846586 48H0.7V47ZM19.6 5V4H18.9534L18.6881 4.58963L19.6 5ZM27.28 5L28.1914 4.58855L27.9257 4H27.28V5ZM46.24 47V48H47.7886L47.1514 46.5886L46.24 47ZM38.08 47L37.1612 47.3946L37.4212 48H38.08V47ZM21.82 9.14V8.14H20.3022L20.9012 9.53462L21.82 9.14ZM24.94 9.14L25.8594 9.53339L26.4556 8.14H24.94V9.14ZM8.74 47V48H9.39981L9.65937 47.3934L8.74 47ZM9.4 37.28L8.45414 36.9554L7.99963 38.28H9.4V37.28ZM11.5 31.16V30.16H10.7859L10.5541 30.8354L11.5 31.16ZM34.18 31.16L35.1259 30.8354L34.8941 30.16H34.18V31.16ZM36.28 37.28V38.28H37.6804L37.2259 36.9554L36.28 37.28ZM1.61192 47.4104L20.5119 5.41036L18.6881 4.58963L-0.211922 46.5896L1.61192 47.4104ZM19.6 6H27.28V4H19.6V6ZM26.3686 5.41144L45.3286 47.4114L47.1514 46.5886L28.1914 4.58855L26.3686 5.41144ZM46.24 46H38.08V48H46.24V46ZM38.9988 46.6054L22.7388 8.74537L20.9012 9.53462L37.1612 47.3946L38.9988 46.6054ZM21.82 10.14H24.94V8.14H21.82V10.14ZM24.0206 8.7466L7.82063 46.6066L9.65937 47.3934L25.8594 9.53339L24.0206 8.7466ZM8.74 46H0.7V48H8.74V46ZM10.3459 37.6046L12.4459 31.4846L10.5541 30.8354L8.45414 36.9554L10.3459 37.6046ZM11.5 32.16H34.18V30.16H11.5V32.16ZM33.2341 31.4846L35.3341 37.6046L37.2259 36.9554L35.1259 30.8354L33.2341 31.4846ZM36.28 36.28H9.4V38.28H36.28V36.28ZM61.4814 45.62L60.9888 46.4903L60.9958 46.4942L61.4814 45.62ZM56.3814 40.22L55.4899 40.673L55.4944 40.6819L55.4991 40.6906L56.3814 40.22ZM56.3214 21.74L55.4329 21.2809L55.427 21.2928L56.3214 21.74ZM61.3614 16.4L61.8414 17.2773L61.8477 17.2738L61.854 17.2703L61.3614 16.4ZM76.9614 16.64L76.4684 17.51L76.4745 17.5135L76.9614 16.64ZM82.7214 22.34L81.854 22.8377L81.8602 22.8483L82.7214 22.34ZM82.7214 39.68L81.8566 39.1779L81.854 39.1823L82.7214 39.68ZM76.9614 45.38L76.4745 44.5065L76.4684 44.51L76.9614 45.38ZM50.8614 58.64H49.8614V59.64H50.8614V58.64ZM50.8614 14.96V13.96H49.8614V14.96H50.8614ZM58.0014 14.96H59.0014V13.96H58.0014V14.96ZM58.0014 22.52L59.001 22.5482L59.0014 22.5341V22.52H58.0014ZM57.7614 31.04L56.7618 31.0118L56.7604 31.0611L56.7639 31.1102L57.7614 31.04ZM58.3614 39.56H59.3614V39.5248L59.3589 39.4897L58.3614 39.56ZM58.3614 58.64V59.64H59.3614V58.64H58.3614ZM72.5814 39.8L72.0957 38.9258L72.0853 38.9318L72.5814 39.8ZM76.0014 36.32L76.8766 36.8037V36.8037L76.0014 36.32ZM76.0014 25.64L75.1261 26.1237L75.1317 26.1336L76.0014 25.64ZM72.5814 22.16L72.0852 23.0283L72.0958 23.0342L72.5814 22.16ZM62.9214 22.16L62.4358 21.2858L62.9214 22.16ZM59.5014 25.64L60.3711 26.1336L60.3766 26.1237L59.5014 25.64ZM62.9214 39.8L63.4071 38.9258L62.9214 39.8ZM68.6214 46.42C66.1822 46.42 63.9707 45.859 61.967 44.7458L60.9958 46.4942C63.3122 47.781 65.8607 48.42 68.6214 48.42V46.42ZM61.974 44.7497C60.038 43.6539 58.4652 42.002 57.2638 39.7494L55.4991 40.6906C56.8577 43.238 58.6848 45.1861 60.9888 46.4903L61.974 44.7497ZM57.2729 39.7669C56.1251 37.5085 55.5214 34.5963 55.5214 30.98H53.5214C53.5214 34.8037 54.1577 38.0515 55.4899 40.673L57.2729 39.7669ZM55.5214 30.98C55.5214 27.3167 56.1074 24.4041 57.2158 22.1872L55.427 21.2928C54.1354 23.8759 53.5214 27.1233 53.5214 30.98H55.5214ZM57.2098 22.199C58.3696 19.9543 59.9164 18.3306 61.8414 17.2773L60.8814 15.5227C58.5664 16.7894 56.7532 18.7256 55.433 21.281L57.2098 22.199ZM61.854 17.2703C63.8068 16.1649 66.0535 15.6 68.6214 15.6V13.6C65.7493 13.6 63.156 14.2351 60.8688 15.5297L61.854 17.2703ZM68.6214 15.6C71.6341 15.6 74.2395 16.247 76.4684 17.51L77.4544 15.77C74.8834 14.313 71.9287 13.6 68.6214 13.6V15.6ZM76.4745 17.5135C78.7548 18.7844 80.5437 20.554 81.854 22.8377L83.5888 21.8423C82.0991 19.246 80.048 17.2156 77.4483 15.7665L76.4745 17.5135ZM81.8602 22.8483C83.1948 25.1096 83.8814 27.8077 83.8814 30.98H85.8814C85.8814 27.5123 85.1281 24.4504 83.5826 21.8317L81.8602 22.8483ZM83.8814 30.98C83.8814 34.1518 83.1949 36.873 81.8566 39.1779L83.5862 40.1821C85.1279 37.527 85.8814 34.4482 85.8814 30.98H83.8814ZM81.854 39.1823C80.5437 41.466 78.7548 43.2356 76.4745 44.5065L77.4483 46.2535C80.048 44.8044 82.0991 42.774 83.5888 40.1777L81.854 39.1823ZM76.4684 44.51C74.2395 45.773 71.6341 46.42 68.6214 46.42V48.42C71.9287 48.42 74.8834 47.707 77.4544 46.25L76.4684 44.51ZM51.8614 58.64V14.96H49.8614V58.64H51.8614ZM50.8614 15.96H58.0014V13.96H50.8614V15.96ZM57.0014 14.96V22.52H59.0014V14.96H57.0014ZM57.0018 22.4918L56.7618 31.0118L58.761 31.0682L59.001 22.5482L57.0018 22.4918ZM56.7639 31.1102L57.3639 39.6302L59.3589 39.4897L58.7589 30.9697L56.7639 31.1102ZM57.3614 39.56V58.64H59.3614V39.56H57.3614ZM58.3614 57.64H50.8614V59.64H58.3614V57.64ZM67.7814 42C69.7347 42 71.5094 41.5643 73.0775 40.6682L72.0853 38.9318C70.8534 39.6357 69.4281 40 67.7814 40V42ZM73.0671 40.6742C74.68 39.7781 75.9511 38.4785 76.8766 36.8037L75.1262 35.8363C74.3717 37.2015 73.3628 38.2219 72.0958 38.9258L73.0671 40.6742ZM76.8766 36.8037C77.8117 35.1116 78.2614 33.1595 78.2614 30.98H76.2614C76.2614 32.8805 75.8711 34.4884 75.1262 35.8363L76.8766 36.8037ZM78.2614 30.98C78.2614 28.7652 77.8136 26.807 76.8711 25.1464L75.1317 26.1336C75.8692 27.433 76.2614 29.0348 76.2614 30.98H78.2614ZM76.8766 25.1563C75.9511 23.4815 74.68 22.1819 73.0671 21.2858L72.0958 23.0342C73.3628 23.7381 74.3717 24.7585 75.1262 26.1237L76.8766 25.1563ZM73.0775 21.2918C71.5094 20.3957 69.7347 19.96 67.7814 19.96V21.96C69.4281 21.96 70.8534 22.3243 72.0853 23.0282L73.0775 21.2918ZM67.7814 19.96C65.8276 19.96 64.0378 20.3958 62.4358 21.2858L63.4071 23.0342C64.685 22.3242 66.1352 21.96 67.7814 21.96V19.96ZM62.4358 21.2858C60.8228 22.1819 59.5517 23.4815 58.6262 25.1563L60.3766 26.1237C61.1311 24.7585 62.14 23.7381 63.4071 23.0342L62.4358 21.2858ZM58.6317 25.1464C57.6892 26.807 57.2414 28.7652 57.2414 30.98H59.2414C59.2414 29.0348 59.6336 27.433 60.3711 26.1336L58.6317 25.1464ZM57.2414 30.98C57.2414 33.1595 57.6911 35.1116 58.6262 36.8037L60.3766 35.8363C59.6317 34.4884 59.2414 32.8805 59.2414 30.98H57.2414ZM58.6262 36.8037C59.5517 38.4785 60.8228 39.7781 62.4358 40.6742L63.4071 38.9258C62.14 38.2219 61.1311 37.2015 60.3766 35.8363L58.6262 36.8037ZM62.4358 40.6742C64.0378 41.5642 65.8276 42 67.7814 42V40C66.1352 40 64.685 39.6358 63.4071 38.9258L62.4358 40.6742ZM102.614 45.62L102.122 46.4903L102.129 46.4942L102.614 45.62ZM97.5142 40.22L96.6227 40.673L96.6272 40.6819L96.6319 40.6906L97.5142 40.22ZM97.4542 21.74L96.5657 21.2809L96.5598 21.2928L97.4542 21.74ZM102.494 16.4L102.974 17.2773L102.981 17.2738L102.987 17.2703L102.494 16.4ZM118.094 16.64L117.601 17.51L117.607 17.5135L118.094 16.64ZM123.854 22.34L122.987 22.8377L122.993 22.8483L123.854 22.34ZM123.854 39.68L122.989 39.1779L122.987 39.1823L123.854 39.68ZM118.094 45.38L117.607 44.5065L117.601 44.51L118.094 45.38ZM91.9942 58.64H90.9942V59.64H91.9942V58.64ZM91.9942 14.96V13.96H90.9942V14.96H91.9942ZM99.1342 14.96H100.134V13.96H99.1342V14.96ZM99.1342 22.52L100.134 22.5482L100.134 22.5341V22.52H99.1342ZM98.8942 31.04L97.8946 31.0118L97.8932 31.0611L97.8967 31.1102L98.8942 31.04ZM99.4942 39.56H100.494V39.5248L100.492 39.4897L99.4942 39.56ZM99.4942 58.64V59.64H100.494V58.64H99.4942ZM113.714 39.8L113.229 38.9258L113.218 38.9318L113.714 39.8ZM117.134 36.32L118.009 36.8037V36.8037L117.134 36.32ZM117.134 25.64L116.259 26.1237L116.265 26.1336L117.134 25.64ZM113.714 22.16L113.218 23.0283L113.229 23.0342L113.714 22.16ZM104.054 22.16L103.569 21.2858L104.054 22.16ZM100.634 25.64L101.504 26.1336L101.509 26.1237L100.634 25.64ZM104.054 39.8L104.54 38.9258L104.054 39.8ZM109.754 46.42C107.315 46.42 105.103 45.859 103.1 44.7458L102.129 46.4942C104.445 47.781 106.993 48.42 109.754 48.42V46.42ZM103.107 44.7497C101.171 43.6539 99.598 42.002 98.3966 39.7494L96.6319 40.6906C97.9905 43.238 99.8176 45.1861 102.122 46.4903L103.107 44.7497ZM98.4057 39.7669C97.2579 37.5085 96.6542 34.5963 96.6542 30.98H94.6542C94.6542 34.8037 95.2905 38.0515 96.6227 40.673L98.4057 39.7669ZM96.6542 30.98C96.6542 27.3167 97.2402 24.4041 98.3486 22.1872L96.5598 21.2928C95.2682 23.8759 94.6542 27.1233 94.6542 30.98H96.6542ZM98.3426 22.199C99.5024 19.9543 101.049 18.3306 102.974 17.2773L102.014 15.5227C99.6992 16.7894 97.886 18.7256 96.5658 21.281L98.3426 22.199ZM102.987 17.2703C104.94 16.1649 107.186 15.6 109.754 15.6V13.6C106.882 13.6 104.289 14.2351 102.002 15.5297L102.987 17.2703ZM109.754 15.6C112.767 15.6 115.372 16.247 117.601 17.51L118.587 15.77C116.016 14.313 113.062 13.6 109.754 13.6V15.6ZM117.607 17.5135C119.888 18.7844 121.677 20.554 122.987 22.8377L124.722 21.8423C123.232 19.246 121.181 17.2156 118.581 15.7665L117.607 17.5135ZM122.993 22.8483C124.328 25.1096 125.014 27.8077 125.014 30.98H127.014C127.014 27.5123 126.261 24.4504 124.715 21.8317L122.993 22.8483ZM125.014 30.98C125.014 34.1518 124.328 36.873 122.989 39.1779L124.719 40.1821C126.261 37.527 127.014 34.4482 127.014 30.98H125.014ZM122.987 39.1823C121.677 41.466 119.888 43.2356 117.607 44.5065L118.581 46.2535C121.181 44.8044 123.232 42.774 124.722 40.1777L122.987 39.1823ZM117.601 44.51C115.372 45.773 112.767 46.42 109.754 46.42V48.42C113.062 48.42 116.016 47.707 118.587 46.25L117.601 44.51ZM92.9942 58.64V14.96H90.9942V58.64H92.9942ZM91.9942 15.96H99.1342V13.96H91.9942V15.96ZM98.1342 14.96V22.52H100.134V14.96H98.1342ZM98.1346 22.4918L97.8946 31.0118L99.8938 31.0682L100.134 22.5482L98.1346 22.4918ZM97.8967 31.1102L98.4967 39.6302L100.492 39.4897L99.8917 30.9697L97.8967 31.1102ZM98.4942 39.56V58.64H100.494V39.56H98.4942ZM99.4942 57.64H91.9942V59.64H99.4942V57.64ZM108.914 42C110.868 42 112.642 41.5643 114.21 40.6682L113.218 38.9318C111.986 39.6357 110.561 40 108.914 40V42ZM114.2 40.6742C115.813 39.7781 117.084 38.4785 118.009 36.8037L116.259 35.8363C115.505 37.2015 114.496 38.2219 113.229 38.9258L114.2 40.6742ZM118.009 36.8037C118.945 35.1116 119.394 33.1595 119.394 30.98H117.394C117.394 32.8805 117.004 34.4884 116.259 35.8363L118.009 36.8037ZM119.394 30.98C119.394 28.7652 118.946 26.807 118.004 25.1464L116.265 26.1336C117.002 27.433 117.394 29.0348 117.394 30.98H119.394ZM118.009 25.1563C117.084 23.4815 115.813 22.1819 114.2 21.2858L113.229 23.0342C114.496 23.7381 115.505 24.7585 116.259 26.1237L118.009 25.1563ZM114.21 21.2918C112.642 20.3957 110.868 19.96 108.914 19.96V21.96C110.561 21.96 111.986 22.3243 113.218 23.0282L114.21 21.2918ZM108.914 19.96C106.96 19.96 105.171 20.3958 103.569 21.2858L104.54 23.0342C105.818 22.3242 107.268 21.96 108.914 21.96V19.96ZM103.569 21.2858C101.956 22.1819 100.685 23.4815 99.759 25.1563L101.509 26.1237C102.264 24.7585 103.273 23.7381 104.54 23.0342L103.569 21.2858ZM99.7645 25.1464C98.8221 26.807 98.3742 28.7652 98.3742 30.98H100.374C100.374 29.0348 100.766 27.433 101.504 26.1336L99.7645 25.1464ZM98.3742 30.98C98.3742 33.1595 98.8239 35.1116 99.759 36.8037L101.509 35.8363C100.765 34.4884 100.374 32.8805 100.374 30.98H98.3742ZM99.759 36.8037C100.685 38.4785 101.956 39.7781 103.569 40.6742L104.54 38.9258C103.273 38.2219 102.264 37.2015 101.509 35.8363L99.759 36.8037ZM103.569 40.6742C105.171 41.5642 106.96 42 108.914 42V40C107.268 40 105.818 39.6358 104.54 38.9258L103.569 40.6742ZM133.127 47H132.127V48H133.127V47ZM133.127 2.48V1.48H132.127V2.48H133.127ZM140.627 2.48H141.627V1.48H140.627V2.48ZM140.627 47V48H141.627V47H140.627ZM134.127 47V2.48H132.127V47H134.127ZM133.127 3.48H140.627V1.48H133.127V3.48ZM139.627 2.48V47H141.627V2.48H139.627ZM140.627 46H133.127V48H140.627V46ZM156.171 45.32L155.692 46.1979L155.7 46.2022L155.708 46.2063L156.171 45.32ZM149.991 39.44L149.126 39.9422L149.132 39.9525L149.991 39.44ZM149.931 22.52L149.066 22.0179L149.063 22.0223L149.931 22.52ZM155.811 16.7L155.325 15.8258L155.319 15.8292L155.811 16.7ZM172.731 16.64L173.218 15.7665L172.731 16.64ZM178.491 22.4L177.62 22.8916L178.491 22.4ZM180.531 32.24L179.536 32.1405L179.531 32.1901V32.24H180.531ZM180.471 33.38V34.38H181.366L181.465 33.4904L180.471 33.38ZM153.771 33.38H152.771V34.38H153.771V33.38ZM153.771 28.4V27.4H152.771V28.4H153.771ZM176.511 28.4L176.979 29.2833L176.511 27.4V28.4ZM173.571 29.96L172.571 29.9383L172.534 31.6422L174.039 30.8433L173.571 29.96ZM172.431 25.1L171.563 25.5961L172.431 25.1ZM169.131 21.8L168.624 22.662L168.635 22.6682L169.131 21.8ZM159.531 21.8L159.035 20.9317L159.024 20.9381L159.531 21.8ZM156.291 25.16L155.417 24.6743L155.412 24.6829L156.291 25.16ZM160.191 39.86L159.744 40.7544L160.191 39.86ZM170.571 40.22L170.933 41.152L170.571 40.22ZM174.411 37.58L175.165 36.9236L174.437 36.0865L173.68 36.8977L174.411 37.58ZM178.431 42.2L179.19 42.8508L179.752 42.1951L179.185 41.5436L178.431 42.2ZM172.971 46.1L173.348 47.0261L173.357 47.0226L172.971 46.1ZM165.531 46.42C162.103 46.42 159.148 45.7468 156.634 44.4337L155.708 46.2063C158.554 47.6932 161.838 48.42 165.531 48.42V46.42ZM156.65 44.4421C154.16 43.0841 152.234 41.2475 150.849 38.9275L149.132 39.9525C150.708 42.5925 152.902 44.6759 155.692 46.1979L156.65 44.4421ZM150.856 38.9379C149.513 36.6256 148.831 33.9821 148.831 30.98H146.831C146.831 34.2979 147.589 37.2944 149.126 39.9421L150.856 38.9379ZM148.831 30.98C148.831 27.9302 149.496 25.2863 150.798 23.0177L149.063 22.0223C147.565 24.6337 146.831 27.6298 146.831 30.98H148.831ZM150.796 23.0221C152.147 20.6949 153.979 18.8827 156.302 17.5708L155.319 15.8292C152.683 17.3173 150.595 19.3851 149.066 22.0179L150.796 23.0221ZM156.296 17.5742C158.652 16.2655 161.342 15.6 164.391 15.6V13.6C161.04 13.6 158.01 14.3345 155.325 15.8258L156.296 17.5742ZM164.391 15.6C167.361 15.6 169.97 16.2458 172.244 17.5135L173.218 15.7665C170.612 14.3142 167.661 13.6 164.391 13.6V15.6ZM172.244 17.5135C174.52 18.7821 176.309 20.5685 177.62 22.8916L179.362 21.9084C177.873 19.2715 175.822 17.2179 173.218 15.7665L172.244 17.5135ZM177.62 22.8916C178.921 25.1966 179.591 27.9411 179.591 31.16H181.591C181.591 27.6589 180.86 24.5634 179.362 21.9084L177.62 22.8916ZM179.591 31.16C179.591 31.4396 179.573 31.7656 179.536 32.1405L181.526 32.3395C181.568 31.9144 181.591 31.5204 181.591 31.16H179.591ZM179.531 32.24C179.531 32.6069 179.512 32.9498 179.477 33.2696L181.465 33.4904C181.509 33.0902 181.531 32.6731 181.531 32.24H179.531ZM180.471 32.38H153.771V34.38H180.471V32.38ZM154.771 33.38V28.4H152.771V33.38H154.771ZM153.771 29.4H176.511V27.4H153.771V29.4ZM176.042 27.5167L173.102 29.0766L174.039 30.8433L176.979 29.2833L176.042 27.5167ZM174.571 29.9817C174.614 27.9865 174.201 26.1826 173.299 24.6039L171.563 25.5961C172.26 26.8174 172.608 28.2535 172.571 29.9383L174.571 29.9817ZM173.299 24.6039C172.41 23.0488 171.182 21.8203 169.627 20.9318L168.635 22.6682C169.88 23.3797 170.851 24.3512 171.563 25.5961L173.299 24.6039ZM169.638 20.9381C168.104 20.0355 166.344 19.6 164.391 19.6V21.6C166.038 21.6 167.438 21.9645 168.624 22.6619L169.638 20.9381ZM164.391 19.6C162.402 19.6 160.606 20.0338 159.035 20.9318L160.027 22.6682C161.256 21.9662 162.7 21.6 164.391 21.6V19.6ZM159.024 20.9381C157.503 21.8326 156.299 23.0856 155.417 24.6744L157.165 25.6456C157.882 24.3544 158.838 23.3674 160.038 22.6619L159.024 20.9381ZM155.412 24.6829C154.558 26.2566 154.151 28.0874 154.151 30.14H156.151C156.151 28.3526 156.504 26.8634 157.17 25.6371L155.412 24.6829ZM154.151 30.14V31.34H156.151V30.14H154.151ZM154.151 31.34C154.151 33.4187 154.629 35.2992 155.611 36.9511L157.33 35.9289C156.553 34.6208 156.151 33.1013 156.151 31.34H154.151ZM155.611 36.9511C156.593 38.6023 157.979 39.8723 159.744 40.7544L160.638 38.9656C159.202 38.2477 158.108 37.2377 157.33 35.9289L155.611 36.9511ZM159.744 40.7544C161.503 41.6343 163.501 42.06 165.711 42.06V40.06C163.761 40.06 162.078 39.6857 160.638 38.9656L159.744 40.7544ZM165.711 42.06C167.615 42.06 169.36 41.7637 170.933 41.152L170.208 39.288C168.901 39.7963 167.407 40.06 165.711 40.06V42.06ZM170.933 41.152C172.522 40.5342 173.926 39.5652 175.142 38.2623L173.68 36.8977C172.656 37.9948 171.5 38.7858 170.208 39.288L170.933 41.152ZM173.656 38.2364L177.676 42.8564L179.185 41.5436L175.165 36.9236L173.656 38.2364ZM177.672 41.5492C176.341 43.1017 174.652 44.3129 172.585 45.1774L173.357 47.0226C175.689 46.0471 177.641 44.6584 179.19 42.8508L177.672 41.5492ZM172.593 45.1739C170.575 45.9964 168.227 46.42 165.531 46.42V48.42C168.435 48.42 171.047 47.9636 173.348 47.0261L172.593 45.1739ZM211.457 47L210.518 47.3446L210.759 48H211.457V47ZM199.697 14.96V13.96H198.265L198.758 15.3046L199.697 14.96ZM206.777 14.96L207.719 14.624L207.482 13.96H206.777V14.96ZM216.857 43.22V44.22H218.275L217.799 42.884L216.857 43.22ZM213.497 43.22L212.56 42.87L212.056 44.22H213.497V43.22ZM224.057 14.96V13.96H223.363L223.12 14.61L224.057 14.96ZM230.357 14.96L231.297 14.6187L231.058 13.96H230.357V14.96ZM240.617 43.22V44.22H242.044L241.557 42.8787L240.617 43.22ZM237.317 43.22L236.378 42.8752L235.884 44.22H237.317V43.22ZM247.697 14.96V13.96H246.999L246.758 14.6152L247.697 14.96ZM254.357 14.96L255.295 15.3061L255.792 13.96H254.357V14.96ZM242.537 47V48H243.234L243.475 47.3461L242.537 47ZM235.337 47L234.4 47.3504L234.643 48H235.337V47ZM225.977 21.98V20.98H224.535L225.04 22.3304L225.977 21.98ZM228.197 21.98L229.131 22.3363L229.649 20.98H228.197V21.98ZM218.657 47V48H219.346L219.591 47.3563L218.657 47ZM212.396 46.6554L200.636 14.6154L198.758 15.3046L210.518 47.3446L212.396 46.6554ZM199.697 15.96H206.777V13.96H199.697V15.96ZM205.835 15.296L215.915 43.556L217.799 42.884L207.719 14.624L205.835 15.296ZM216.857 42.22H213.497V44.22H216.857V42.22ZM214.434 43.57L224.994 15.31L223.12 14.61L212.56 42.87L214.434 43.57ZM224.057 15.96H230.357V13.96H224.057V15.96ZM229.417 15.3013L239.677 43.5613L241.557 42.8787L231.297 14.6187L229.417 15.3013ZM240.617 42.22H237.317V44.22H240.617V42.22ZM238.256 43.5648L248.636 15.3048L246.758 14.6152L236.378 42.8752L238.256 43.5648ZM247.697 15.96H254.357V13.96H247.697V15.96ZM253.419 14.6139L241.599 46.6539L243.475 47.3461L255.295 15.3061L253.419 14.6139ZM242.537 46H235.337V48H242.537V46ZM236.274 46.6496L226.914 21.6296L225.04 22.3304L234.4 47.3504L236.274 46.6496ZM225.977 22.98H228.197V20.98H225.977V22.98ZM227.263 21.6237L217.723 46.6437L219.591 47.3563L229.131 22.3363L227.263 21.6237ZM218.657 46H211.457V48H218.657V46ZM259.514 47H258.514V48H259.514V47ZM259.514 14.96V13.96H258.514V14.96H259.514ZM267.014 14.96H268.014V13.96H267.014V14.96ZM267.014 47V48H268.014V47H267.014ZM259.814 8.36L259.107 9.0671L259.115 9.07496L259.123 9.08264L259.814 8.36ZM259.814 2L260.504 2.72335L260.505 2.72264L259.814 2ZM266.714 1.94L266.023 2.66335L266.04 2.67938L266.058 2.6946L266.714 1.94ZM266.774 8.36L267.481 9.0671L267.489 9.05925L267.496 9.05122L266.774 8.36ZM260.514 47V14.96H258.514V47H260.514ZM259.514 15.96H267.014V13.96H259.514V15.96ZM266.014 14.96V47H268.014V14.96H266.014ZM267.014 46H259.514V48H267.014V46ZM263.294 8.68C262.123 8.68 261.22 8.32088 260.505 7.63736L259.123 9.08264C260.248 10.1591 261.664 10.68 263.294 10.68V8.68ZM260.521 7.65289C259.828 6.95966 259.494 6.1537 259.494 5.18H257.494C257.494 6.6863 258.04 8.00034 259.107 9.0671L260.521 7.65289ZM259.494 5.18C259.494 4.15731 259.833 3.36391 260.504 2.72335L259.123 1.27664C258.034 2.31609 257.494 3.64269 257.494 5.18H259.494ZM260.505 2.72264C261.22 2.03911 262.123 1.68 263.294 1.68V-0.320001C261.664 -0.320001 260.248 0.200885 259.123 1.27735L260.505 2.72264ZM263.294 1.68C264.478 1.68 265.357 2.02779 266.023 2.66335L267.404 1.21664C266.31 0.172202 264.909 -0.320001 263.294 -0.320001V1.68ZM266.058 2.6946C266.755 3.30099 267.094 4.04376 267.094 5H269.094C269.094 3.47623 268.513 2.17901 267.37 1.18539L266.058 2.6946ZM267.094 5C267.094 6.07299 266.746 6.94234 266.051 7.66877L267.496 9.05122C268.562 7.93765 269.094 6.567 269.094 5H267.094ZM266.067 7.65289C265.404 8.31571 264.514 8.68 263.294 8.68V10.68C264.954 10.68 266.384 10.1643 267.481 9.0671L266.067 7.65289ZM276.858 47H275.858V48H276.858V47ZM276.858 14.96V13.96H275.858V14.96H276.858ZM283.997 14.96H284.997V13.96H283.997V14.96ZM283.997 23.78L283.047 24.0896L284.997 23.78H283.997ZM283.158 21.2L282.244 20.7939L282.088 21.1446L282.207 21.5096L283.158 21.2ZM287.658 16.28L287.183 15.3995L287.176 15.4034L287.658 16.28ZM295.397 14.6H296.397V13.6H295.397V14.6ZM295.397 21.74L295.155 22.7101L296.397 23.0208V21.74H295.397ZM294.497 21.62L294.356 22.6099L294.426 22.62H294.497V21.62ZM286.878 24.08L287.576 24.7956L287.585 24.7871L286.878 24.08ZM284.358 47V48H285.358V47H284.358ZM277.858 47V14.96H275.858V47H277.858ZM276.858 15.96H283.997V13.96H276.858V15.96ZM282.997 14.96V23.78H284.997V14.96H282.997ZM284.948 23.4704L284.108 20.8904L282.207 21.5096L283.047 24.0896L284.948 23.4704ZM284.071 21.6061C284.944 19.6427 286.294 18.1695 288.139 17.1566L287.176 15.4034C284.941 16.6305 283.291 18.4373 282.244 20.7939L284.071 21.6061ZM288.132 17.1605C290.028 16.1392 292.434 15.6 295.397 15.6V13.6C292.201 13.6 289.447 14.1808 287.183 15.3995L288.132 17.1605ZM294.397 14.6V21.74H296.397V14.6H294.397ZM295.64 20.7699C295.254 20.6734 294.872 20.62 294.497 20.62V22.62C294.683 22.62 294.901 22.6466 295.155 22.7101L295.64 20.7699ZM294.639 20.6301C294.313 20.5834 293.985 20.56 293.658 20.56V22.56C293.89 22.56 294.122 22.5766 294.356 22.6099L294.639 20.6301ZM293.658 20.56C290.608 20.56 288.074 21.4694 286.17 23.3729L287.585 24.7871C289.041 23.3306 291.027 22.56 293.658 22.56V20.56ZM286.179 23.3644C284.24 25.2571 283.358 28.0197 283.358 31.46H285.358C285.358 28.3403 286.155 26.1829 287.576 24.7956L286.179 23.3644ZM283.358 31.46V47H285.358V31.46H283.358ZM284.358 46H276.858V48H284.358V46ZM307.167 45.32L306.688 46.1979L306.696 46.2022L306.704 46.2063L307.167 45.32ZM300.987 39.44L300.122 39.9422L300.128 39.9525L300.987 39.44ZM300.927 22.52L300.062 22.0179L300.06 22.0223L300.927 22.52ZM306.807 16.7L306.321 15.8258L306.315 15.8292L306.807 16.7ZM323.727 16.64L324.214 15.7665L323.727 16.64ZM329.487 22.4L328.616 22.8916L329.487 22.4ZM331.527 32.24L330.532 32.1405L330.527 32.1901V32.24H331.527ZM331.467 33.38V34.38H332.362L332.461 33.4904L331.467 33.38ZM304.767 33.38H303.767V34.38H304.767V33.38ZM304.767 28.4V27.4H303.767V28.4H304.767ZM327.507 28.4L327.976 29.2833L327.507 27.4V28.4ZM324.567 29.96L323.567 29.9383L323.53 31.6422L325.036 30.8433L324.567 29.96ZM323.427 25.1L322.559 25.5961L323.427 25.1ZM320.127 21.8L319.62 22.662L319.631 22.6682L320.127 21.8ZM310.527 21.8L310.031 20.9317L310.02 20.9381L310.527 21.8ZM307.287 25.16L306.413 24.6743L306.408 24.6829L307.287 25.16ZM311.187 39.86L310.74 40.7544L311.187 39.86ZM321.567 40.22L321.929 41.152L321.567 40.22ZM325.407 37.58L326.161 36.9236L325.433 36.0865L324.676 36.8977L325.407 37.58ZM329.427 42.2L330.186 42.8508L330.748 42.1951L330.181 41.5436L329.427 42.2ZM323.967 46.1L324.344 47.0261L324.353 47.0226L323.967 46.1ZM316.527 46.42C313.1 46.42 310.144 45.7468 307.63 44.4337L306.704 46.2063C309.55 47.6932 312.834 48.42 316.527 48.42V46.42ZM307.646 44.4421C305.156 43.0841 303.23 41.2475 301.846 38.9275L300.128 39.9525C301.704 42.5925 303.898 44.6759 306.688 46.1979L307.646 44.4421ZM301.852 38.9379C300.509 36.6256 299.827 33.9821 299.827 30.98H297.827C297.827 34.2979 298.585 37.2944 300.122 39.9421L301.852 38.9379ZM299.827 30.98C299.827 27.9302 300.493 25.2863 301.794 23.0177L300.06 22.0223C298.561 24.6337 297.827 27.6298 297.827 30.98H299.827ZM301.792 23.0221C303.143 20.6949 304.975 18.8827 307.298 17.5708L306.315 15.8292C303.679 17.3173 301.591 19.3851 300.062 22.0179L301.792 23.0221ZM307.293 17.5742C309.648 16.2655 312.338 15.6 315.387 15.6V13.6C312.036 13.6 309.006 14.3345 306.321 15.8258L307.293 17.5742ZM315.387 15.6C318.357 15.6 320.966 16.2458 323.24 17.5135L324.214 15.7665C321.608 14.3142 318.657 13.6 315.387 13.6V15.6ZM323.24 17.5135C325.516 18.7821 327.305 20.5685 328.616 22.8916L330.358 21.9084C328.869 19.2715 326.818 17.2179 324.214 15.7665L323.24 17.5135ZM328.616 22.8916C329.917 25.1966 330.587 27.9411 330.587 31.16H332.587C332.587 27.6589 331.856 24.5634 330.358 21.9084L328.616 22.8916ZM330.587 31.16C330.587 31.4396 330.569 31.7656 330.532 32.1405L332.522 32.3395C332.564 31.9144 332.587 31.5204 332.587 31.16H330.587ZM330.527 32.24C330.527 32.6069 330.509 32.9498 330.473 33.2696L332.461 33.4904C332.505 33.0902 332.527 32.6731 332.527 32.24H330.527ZM331.467 32.38H304.767V34.38H331.467V32.38ZM305.767 33.38V28.4H303.767V33.38H305.767ZM304.767 29.4H327.507V27.4H304.767V29.4ZM327.038 27.5167L324.098 29.0766L325.036 30.8433L327.976 29.2833L327.038 27.5167ZM325.567 29.9817C325.61 27.9865 325.197 26.1826 324.295 24.6039L322.559 25.5961C323.256 26.8174 323.604 28.2535 323.567 29.9383L325.567 29.9817ZM324.295 24.6039C323.407 23.0488 322.178 21.8203 320.623 20.9318L319.631 22.6682C320.876 23.3797 321.847 24.3512 322.559 25.5961L324.295 24.6039ZM320.634 20.9381C319.1 20.0355 317.34 19.6 315.387 19.6V21.6C317.034 21.6 318.434 21.9645 319.62 22.6619L320.634 20.9381ZM315.387 19.6C313.398 19.6 311.602 20.0338 310.031 20.9318L311.023 22.6682C312.252 21.9662 313.696 21.6 315.387 21.6V19.6ZM310.02 20.9381C308.499 21.8326 307.295 23.0856 306.413 24.6744L308.161 25.6456C308.878 24.3544 309.835 23.3674 311.034 22.6619L310.02 20.9381ZM306.408 24.6829C305.554 26.2566 305.147 28.0874 305.147 30.14H307.147C307.147 28.3526 307.5 26.8634 308.166 25.6371L306.408 24.6829ZM305.147 30.14V31.34H307.147V30.14H305.147ZM305.147 31.34C305.147 33.4187 305.625 35.2992 306.607 36.9511L308.326 35.9289C307.549 34.6208 307.147 33.1013 307.147 31.34H305.147ZM306.607 36.9511C307.589 38.6023 308.975 39.8723 310.74 40.7544L311.634 38.9656C310.198 38.2477 309.105 37.2377 308.326 35.9289L306.607 36.9511ZM310.74 40.7544C312.499 41.6343 314.497 42.06 316.707 42.06V40.06C314.757 40.06 313.074 39.6857 311.634 38.9656L310.74 40.7544ZM316.707 42.06C318.611 42.06 320.356 41.7637 321.929 41.152L321.204 39.288C319.897 39.7963 318.403 40.06 316.707 40.06V42.06ZM321.929 41.152C323.518 40.5342 324.922 39.5652 326.138 38.2623L324.676 36.8977C323.652 37.9948 322.496 38.7858 321.204 39.288L321.929 41.152ZM324.652 38.2364L328.672 42.8564L330.181 41.5436L326.161 36.9236L324.652 38.2364ZM328.668 41.5492C327.337 43.1017 325.649 44.3129 323.581 45.1774L324.353 47.0226C326.685 46.0471 328.637 44.6584 330.186 42.8508L328.668 41.5492ZM323.59 45.1739C321.571 45.9964 319.223 46.42 316.527 46.42V48.42C319.431 48.42 322.043 47.9636 324.344 47.0261L323.59 45.1739ZM338.791 47H337.791V48H338.791V47ZM338.791 2.48V1.48H337.791V2.48H338.791ZM346.291 2.48H347.291V1.48H346.291V2.48ZM346.291 47V48H347.291V47H346.291ZM339.791 47V2.48H337.791V47H339.791ZM338.791 3.48H346.291V1.48H338.791V3.48ZM345.291 2.48V47H347.291V2.48H345.291ZM346.291 46H338.791V48H346.291V46ZM361.835 45.32L361.356 46.1979L361.364 46.2022L361.372 46.2063L361.835 45.32ZM355.655 39.44L354.79 39.9422L354.796 39.9525L355.655 39.44ZM355.595 22.52L354.73 22.0179L354.727 22.0223L355.595 22.52ZM361.475 16.7L360.989 15.8258L360.983 15.8292L361.475 16.7ZM378.395 16.64L378.882 15.7665L378.395 16.64ZM384.155 22.4L383.284 22.8916L384.155 22.4ZM386.195 32.24L385.2 32.1405L385.195 32.1901V32.24H386.195ZM386.135 33.38V34.38H387.03L387.129 33.4904L386.135 33.38ZM359.435 33.38H358.435V34.38H359.435V33.38ZM359.435 28.4V27.4H358.435V28.4H359.435ZM382.175 28.4L382.644 29.2833L382.175 27.4V28.4ZM379.235 29.96L378.235 29.9383L378.198 31.6422L379.704 30.8433L379.235 29.96ZM378.095 25.1L377.227 25.5961L378.095 25.1ZM374.795 21.8L374.288 22.662L374.299 22.6682L374.795 21.8ZM365.195 21.8L364.699 20.9317L364.688 20.9381L365.195 21.8ZM361.955 25.16L361.081 24.6743L361.076 24.6829L361.955 25.16ZM365.855 39.86L365.408 40.7544L365.855 39.86ZM376.235 40.22L376.597 41.152L376.235 40.22ZM380.075 37.58L380.829 36.9236L380.101 36.0865L379.344 36.8977L380.075 37.58ZM384.095 42.2L384.854 42.8508L385.416 42.1951L384.849 41.5436L384.095 42.2ZM378.635 46.1L379.012 47.0261L379.021 47.0226L378.635 46.1ZM371.195 46.42C367.768 46.42 364.812 45.7468 362.298 44.4337L361.372 46.2063C364.218 47.6932 367.502 48.42 371.195 48.42V46.42ZM362.314 44.4421C359.824 43.0841 357.898 41.2475 356.514 38.9275L354.796 39.9525C356.372 42.5925 358.566 44.6759 361.356 46.1979L362.314 44.4421ZM356.52 38.9379C355.177 36.6256 354.495 33.9821 354.495 30.98H352.495C352.495 34.2979 353.253 37.2944 354.79 39.9421L356.52 38.9379ZM354.495 30.98C354.495 27.9302 355.161 25.2863 356.462 23.0177L354.727 22.0223C353.229 24.6337 352.495 27.6298 352.495 30.98H354.495ZM356.46 23.0221C357.811 20.6949 359.643 18.8827 361.966 17.5708L360.983 15.8292C358.347 17.3173 356.259 19.3851 354.73 22.0179L356.46 23.0221ZM361.96 17.5742C364.316 16.2655 367.006 15.6 370.055 15.6V13.6C366.704 13.6 363.674 14.3345 360.989 15.8258L361.96 17.5742ZM370.055 15.6C373.025 15.6 375.634 16.2458 377.908 17.5135L378.882 15.7665C376.276 14.3142 373.325 13.6 370.055 13.6V15.6ZM377.908 17.5135C380.184 18.7821 381.973 20.5685 383.284 22.8916L385.026 21.9084C383.537 19.2715 381.486 17.2179 378.882 15.7665L377.908 17.5135ZM383.284 22.8916C384.585 25.1966 385.255 27.9411 385.255 31.16H387.255C387.255 27.6589 386.524 24.5634 385.026 21.9084L383.284 22.8916ZM385.255 31.16C385.255 31.4396 385.237 31.7656 385.2 32.1405L387.19 32.3395C387.232 31.9144 387.255 31.5204 387.255 31.16H385.255ZM385.195 32.24C385.195 32.6069 385.176 32.9498 385.141 33.2696L387.129 33.4904C387.173 33.0902 387.195 32.6731 387.195 32.24H385.195ZM386.135 32.38H359.435V34.38H386.135V32.38ZM360.435 33.38V28.4H358.435V33.38H360.435ZM359.435 29.4H382.175V27.4H359.435V29.4ZM381.706 27.5167L378.766 29.0766L379.704 30.8433L382.644 29.2833L381.706 27.5167ZM380.235 29.9817C380.278 27.9865 379.865 26.1826 378.963 24.6039L377.227 25.5961C377.924 26.8174 378.272 28.2535 378.235 29.9383L380.235 29.9817ZM378.963 24.6039C378.074 23.0488 376.846 21.8203 375.291 20.9318L374.299 22.6682C375.544 23.3797 376.515 24.3512 377.227 25.5961L378.963 24.6039ZM375.302 20.9381C373.768 20.0355 372.008 19.6 370.055 19.6V21.6C371.702 21.6 373.102 21.9645 374.288 22.6619L375.302 20.9381ZM370.055 19.6C368.066 19.6 366.27 20.0338 364.699 20.9318L365.691 22.6682C366.92 21.9662 368.364 21.6 370.055 21.6V19.6ZM364.688 20.9381C363.167 21.8326 361.963 23.0856 361.081 24.6744L362.829 25.6456C363.546 24.3544 364.503 23.3674 365.702 22.6619L364.688 20.9381ZM361.076 24.6829C360.222 26.2566 359.815 28.0874 359.815 30.14H361.815C361.815 28.3526 362.168 26.8634 362.834 25.6371L361.076 24.6829ZM359.815 30.14V31.34H361.815V30.14H359.815ZM359.815 31.34C359.815 33.4187 360.293 35.2992 361.275 36.9511L362.994 35.9289C362.217 34.6208 361.815 33.1013 361.815 31.34H359.815ZM361.275 36.9511C362.257 38.6023 363.643 39.8723 365.408 40.7544L366.302 38.9656C364.866 38.2477 363.773 37.2377 362.994 35.9289L361.275 36.9511ZM365.408 40.7544C367.167 41.6343 369.165 42.06 371.375 42.06V40.06C369.425 40.06 367.742 39.6857 366.302 38.9656L365.408 40.7544ZM371.375 42.06C373.279 42.06 375.024 41.7637 376.597 41.152L375.872 39.288C374.565 39.7963 373.071 40.06 371.375 40.06V42.06ZM376.597 41.152C378.186 40.5342 379.59 39.5652 380.806 38.2623L379.344 36.8977C378.32 37.9948 377.164 38.7858 375.872 39.288L376.597 41.152ZM379.32 38.2364L383.34 42.8564L384.849 41.5436L380.829 36.9236L379.32 38.2364ZM383.336 41.5492C382.005 43.1017 380.316 44.3129 378.249 45.1774L379.021 47.0226C381.353 46.0471 383.305 44.6584 384.854 42.8508L383.336 41.5492ZM378.258 45.1739C376.239 45.9964 373.891 46.42 371.195 46.42V48.42C374.099 48.42 376.711 47.9636 379.012 47.0261L378.258 45.1739ZM395.619 46.4L395.336 47.3591L395.345 47.3619L395.355 47.3644L395.619 46.4ZM389.799 43.82L388.907 43.369L388.514 44.1453L389.229 44.6414L389.799 43.82ZM392.679 38.12L393.217 37.2773L392.285 36.6818L391.787 37.669L392.679 38.12ZM397.839 40.4L398.126 39.4422L397.839 40.4ZM408.939 40.34L408.429 39.4797L408.422 39.484L408.415 39.4883L408.939 40.34ZM409.479 35.78L408.924 36.612L408.941 36.623L408.958 36.6333L409.479 35.78ZM402.759 34.04L402.618 35.03L402.621 35.0305L402.759 34.04ZM398.499 33.26L398.25 34.2285L398.266 34.2326L398.282 34.2362L398.499 33.26ZM394.659 31.76L394.153 32.6227L394.165 32.6293L394.176 32.6356L394.659 31.76ZM392.499 19.34L393.286 19.9569L393.294 19.9467L392.499 19.34ZM397.359 15.86L397.718 16.7934L397.727 16.7897L397.359 15.86ZM411.399 15.32L411.186 16.297L411.399 15.32ZM416.859 17.36L417.752 17.811L418.168 16.9877L417.381 16.5067L416.859 17.36ZM413.979 23.06L413.461 23.9155L414.385 24.4745L414.872 23.511L413.979 23.06ZM409.359 21.2L409.129 22.1731L409.143 22.1766L409.158 22.1796L409.359 21.2ZM399.699 21.68L399.18 20.8252L399.173 20.8294L399.166 20.8338L399.699 21.68ZM399.159 26.42L398.604 27.252L399.159 26.42ZM401.979 27.56L401.744 28.5321L401.979 27.56ZM405.819 28.28L405.678 29.27L405.693 29.2722L405.709 29.2739L405.819 28.28ZM410.079 29.06L410.328 28.0915L410.079 29.06ZM413.919 30.56L413.436 31.4356L413.454 31.4454L413.472 31.4544L413.919 30.56ZM416.079 42.74L415.302 42.1102L415.297 42.1166L415.292 42.1231L416.079 42.74ZM411.099 46.22L411.446 47.1577L411.454 47.1549L411.462 47.152L411.099 46.22ZM403.359 46.42C400.765 46.42 398.274 46.091 395.883 45.4356L395.355 47.3644C397.924 48.069 400.594 48.42 403.359 48.42V46.42ZM395.902 45.4409C393.523 44.7388 391.692 43.9169 390.369 42.9986L389.229 44.6414C390.786 45.7231 392.836 46.6213 395.336 47.3591L395.902 45.4409ZM390.692 44.271L393.572 38.571L391.787 37.669L388.907 43.369L390.692 44.271ZM392.141 38.9627C393.674 39.9421 395.482 40.7369 397.552 41.3578L398.126 39.4422C396.196 38.8631 394.564 38.1379 393.217 37.2773L392.141 38.9627ZM397.552 41.3578C399.641 41.9846 401.738 42.3 403.839 42.3V40.3C401.941 40.3 400.037 40.0154 398.126 39.4422L397.552 41.3578ZM403.839 42.3C406.24 42.3 408.177 41.9834 409.463 41.1917L408.415 39.4883C407.622 39.9766 406.158 40.3 403.839 40.3V42.3ZM409.449 41.2003C410.774 40.4149 411.559 39.2564 411.559 37.76H409.559C409.559 38.4236 409.264 38.9851 408.429 39.4797L409.449 41.2003ZM411.559 37.76C411.559 36.5498 411.033 35.5577 410.001 34.9267L408.958 36.6333C409.365 36.8823 409.559 37.2102 409.559 37.76H411.559ZM410.034 34.9479C409.175 34.3757 408.104 33.9778 406.862 33.7207L406.456 35.6793C407.534 35.9022 408.343 36.2243 408.924 36.612L410.034 34.9479ZM406.862 33.7207C405.676 33.4754 404.354 33.2519 402.897 33.0495L402.621 35.0305C404.044 35.2281 405.322 35.4446 406.456 35.6793L406.862 33.7207ZM402.9 33.05C401.527 32.8538 400.132 32.5985 398.716 32.2838L398.282 34.2362C399.746 34.5615 401.191 34.8262 402.618 35.0299L402.9 33.05ZM398.748 32.2915C397.422 31.9506 396.222 31.4802 395.142 30.8844L394.176 32.6356C395.416 33.3198 396.776 33.8494 398.25 34.2285L398.748 32.2915ZM395.165 30.8973C394.139 30.296 393.314 29.5057 392.68 28.5192L390.998 29.6008C391.804 30.8543 392.859 31.864 394.153 32.6227L395.165 30.8973ZM392.68 28.5192C392.096 27.6111 391.759 26.3389 391.759 24.62H389.759C389.759 26.5811 390.142 28.2689 390.998 29.6008L392.68 28.5192ZM391.759 24.62C391.759 22.7834 392.276 21.2456 393.286 19.9569L391.712 18.7231C390.402 20.3944 389.759 22.3766 389.759 24.62H391.759ZM393.294 19.9467C394.324 18.5967 395.782 17.5381 397.718 16.7933L397 14.9267C394.776 15.7819 392.994 17.0433 391.704 18.7333L393.294 19.9467ZM397.727 16.7897C399.704 16.0066 402.073 15.6 404.859 15.6V13.6C401.885 13.6 399.254 14.0334 396.991 14.9303L397.727 16.7897ZM404.859 15.6C406.944 15.6 409.053 15.8316 411.186 16.297L411.612 14.343C409.345 13.8484 407.094 13.6 404.859 13.6V15.6ZM411.186 16.297C413.311 16.7607 415.019 17.4072 416.338 18.2133L417.381 16.5067C415.82 15.5528 413.887 14.8393 411.612 14.343L411.186 16.297ZM415.967 16.909L413.087 22.609L414.872 23.511L417.752 17.811L415.967 16.909ZM414.497 22.2045C412.89 21.2321 411.244 20.5659 409.56 20.2204L409.158 22.1796C410.594 22.4741 412.028 23.0479 413.461 23.9155L414.497 22.2045ZM409.59 20.2269C407.996 19.8495 406.399 19.66 404.799 19.66V21.66C406.239 21.66 407.682 21.8305 409.129 22.1731L409.59 20.2269ZM404.799 19.66C402.454 19.66 400.534 20.0034 399.18 20.8252L400.218 22.5348C401.104 21.9966 402.584 21.66 404.799 21.66V19.66ZM399.166 20.8338C397.872 21.6489 397.079 22.7951 397.079 24.26H399.079C399.079 23.6449 399.366 23.0711 400.232 22.5262L399.166 20.8338ZM397.079 24.26C397.079 25.5113 397.572 26.5639 398.604 27.252L399.714 25.5879C399.306 25.3161 399.079 24.9287 399.079 24.26H397.079ZM398.604 27.252C399.451 27.8167 400.51 28.2342 401.744 28.5321L402.214 26.5879C401.128 26.3258 400.307 25.9833 399.714 25.5879L398.604 27.252ZM401.744 28.5321C402.94 28.8207 404.252 29.0663 405.678 29.27L405.96 27.2901C404.586 27.0937 403.338 26.8593 402.214 26.5879L401.744 28.5321ZM405.709 29.2739C407.102 29.4287 408.476 29.6802 409.83 30.0285L410.328 28.0915C408.882 27.7198 407.416 27.4513 405.93 27.2861L405.709 29.2739ZM409.83 30.0285C411.156 30.3694 412.356 30.8398 413.436 31.4356L414.402 29.6844C413.162 29.0002 411.802 28.4706 410.328 28.0915L409.83 30.0285ZM413.472 31.4544C414.512 31.9747 415.336 32.7131 415.958 33.6808L417.64 32.5992C416.822 31.3269 415.726 30.3453 414.366 29.6656L413.472 31.4544ZM415.958 33.6808C416.544 34.592 416.879 35.8462 416.879 37.52H418.879C418.879 35.5938 418.494 33.928 417.64 32.5992L415.958 33.6808ZM416.879 37.52C416.879 39.303 416.35 40.8176 415.302 42.1102L416.856 43.3698C418.208 41.7024 418.879 39.737 418.879 37.52H416.879ZM415.292 42.1231C414.266 43.4324 412.768 44.498 410.737 45.288L411.462 47.152C413.75 46.262 415.572 45.0076 416.866 43.3569L415.292 42.1231ZM410.752 45.2822C408.731 46.0307 406.275 46.42 403.359 46.42V48.42C406.444 48.42 409.147 48.0093 411.446 47.1577L410.752 45.2822ZM426.498 46.4L426.215 47.3591L426.224 47.3619L426.234 47.3644L426.498 46.4ZM420.678 43.82L419.785 43.369L419.393 44.1453L420.108 44.6414L420.678 43.82ZM423.558 38.12L424.096 37.2773L423.164 36.6818L422.665 37.669L423.558 38.12ZM428.718 40.4L429.005 39.4422L428.718 40.4ZM439.818 40.34L439.308 39.4797L439.301 39.484L439.294 39.4883L439.818 40.34ZM440.358 35.78L439.803 36.612L439.82 36.623L439.837 36.6333L440.358 35.78ZM433.638 34.04L433.497 35.03L433.5 35.0305L433.638 34.04ZM429.378 33.26L429.129 34.2285L429.145 34.2326L429.161 34.2362L429.378 33.26ZM425.538 31.76L425.032 32.6227L425.043 32.6293L425.055 32.6356L425.538 31.76ZM423.378 19.34L424.165 19.9569L424.173 19.9467L423.378 19.34ZM428.238 15.86L428.597 16.7934L428.606 16.7897L428.238 15.86ZM442.278 15.32L442.065 16.297L442.278 15.32ZM447.738 17.36L448.631 17.811L449.046 16.9877L448.259 16.5067L447.738 17.36ZM444.858 23.06L444.34 23.9155L445.264 24.4745L445.751 23.511L444.858 23.06ZM440.238 21.2L440.008 22.1731L440.022 22.1766L440.037 22.1796L440.238 21.2ZM430.578 21.68L430.059 20.8252L430.052 20.8294L430.045 20.8338L430.578 21.68ZM430.038 26.42L429.483 27.252L430.038 26.42ZM432.858 27.56L432.623 28.5321L432.858 27.56ZM436.698 28.28L436.557 29.27L436.572 29.2722L436.588 29.2739L436.698 28.28ZM440.958 29.06L441.207 28.0915L440.958 29.06ZM444.798 30.56L444.315 31.4356L444.333 31.4454L444.351 31.4544L444.798 30.56ZM446.958 42.74L446.181 42.1102L446.176 42.1166L446.171 42.1231L446.958 42.74ZM441.978 46.22L442.325 47.1577L442.333 47.1549L442.34 47.152L441.978 46.22ZM434.238 46.42C431.644 46.42 429.153 46.091 426.762 45.4356L426.234 47.3644C428.803 48.069 431.472 48.42 434.238 48.42V46.42ZM426.781 45.4409C424.402 44.7388 422.571 43.9169 421.248 42.9986L420.108 44.6414C421.665 45.7231 423.714 46.6213 426.215 47.3591L426.781 45.4409ZM421.57 44.271L424.451 38.571L422.665 37.669L419.785 43.369L421.57 44.271ZM423.02 38.9627C424.553 39.9421 426.361 40.7369 428.431 41.3578L429.005 39.4422C427.075 38.8631 425.443 38.1379 424.096 37.2773L423.02 38.9627ZM428.431 41.3578C430.52 41.9846 432.616 42.3 434.718 42.3V40.3C432.82 40.3 430.916 40.0154 429.005 39.4422L428.431 41.3578ZM434.718 42.3C437.119 42.3 439.055 41.9834 440.342 41.1917L439.294 39.4883C438.5 39.9766 437.037 40.3 434.718 40.3V42.3ZM440.328 41.2003C441.653 40.4149 442.438 39.2564 442.438 37.76H440.438C440.438 38.4236 440.143 38.9851 439.308 39.4797L440.328 41.2003ZM442.438 37.76C442.438 36.5498 441.912 35.5577 440.879 34.9267L439.837 36.6333C440.244 36.8823 440.438 37.2102 440.438 37.76H442.438ZM440.913 34.9479C440.054 34.3757 438.983 33.9778 437.741 33.7207L437.335 35.6793C438.413 35.9022 439.222 36.2243 439.803 36.612L440.913 34.9479ZM437.741 33.7207C436.555 33.4754 435.233 33.2519 433.776 33.0495L433.5 35.0305C434.923 35.2281 436.201 35.4446 437.335 35.6793L437.741 33.7207ZM433.779 33.05C432.406 32.8538 431.011 32.5985 429.595 32.2838L429.161 34.2362C430.625 34.5615 432.07 34.8262 433.497 35.0299L433.779 33.05ZM429.627 32.2915C428.301 31.9506 427.101 31.4802 426.021 30.8844L425.055 32.6356C426.295 33.3198 427.655 33.8494 429.129 34.2285L429.627 32.2915ZM426.044 30.8973C425.018 30.296 424.193 29.5057 423.559 28.5192L421.877 29.6008C422.683 30.8543 423.738 31.864 425.032 32.6227L426.044 30.8973ZM423.559 28.5192C422.975 27.6111 422.638 26.3389 422.638 24.62H420.638C420.638 26.5811 421.021 28.2689 421.877 29.6008L423.559 28.5192ZM422.638 24.62C422.638 22.7834 423.155 21.2456 424.165 19.9569L422.591 18.7231C421.281 20.3944 420.638 22.3766 420.638 24.62H422.638ZM424.173 19.9467C425.203 18.5967 426.661 17.5381 428.597 16.7933L427.879 14.9267C425.655 15.7819 423.873 17.0433 422.583 18.7333L424.173 19.9467ZM428.606 16.7897C430.583 16.0066 432.952 15.6 435.738 15.6V13.6C432.764 13.6 430.133 14.0334 427.87 14.9303L428.606 16.7897ZM435.738 15.6C437.823 15.6 439.932 15.8316 442.065 16.297L442.491 14.343C440.224 13.8484 437.973 13.6 435.738 13.6V15.6ZM442.065 16.297C444.19 16.7607 445.897 17.4072 447.217 18.2133L448.259 16.5067C446.698 15.5528 444.766 14.8393 442.491 14.343L442.065 16.297ZM446.845 16.909L443.965 22.609L445.751 23.511L448.631 17.811L446.845 16.909ZM445.376 22.2045C443.769 21.2321 442.123 20.5659 440.439 20.2204L440.037 22.1796C441.473 22.4741 442.907 23.0479 444.34 23.9155L445.376 22.2045ZM440.468 20.2269C438.875 19.8495 437.278 19.66 435.678 19.66V21.66C437.118 21.66 438.561 21.8305 440.008 22.1731L440.468 20.2269ZM435.678 19.66C433.333 19.66 431.413 20.0034 430.059 20.8252L431.097 22.5348C431.983 21.9966 433.463 21.66 435.678 21.66V19.66ZM430.045 20.8338C428.751 21.6489 427.958 22.7951 427.958 24.26H429.958C429.958 23.6449 430.245 23.0711 431.111 22.5262L430.045 20.8338ZM427.958 24.26C427.958 25.5113 428.451 26.5639 429.483 27.252L430.593 25.5879C430.185 25.3161 429.958 24.9287 429.958 24.26H427.958ZM429.483 27.252C430.33 27.8167 431.389 28.2342 432.623 28.5321L433.093 26.5879C432.007 26.3258 431.186 25.9833 430.593 25.5879L429.483 27.252ZM432.623 28.5321C433.819 28.8207 435.131 29.0663 436.557 29.27L436.839 27.2901C435.465 27.0937 434.217 26.8593 433.093 26.5879L432.623 28.5321ZM436.588 29.2739C437.981 29.4287 439.355 29.6802 440.709 30.0285L441.207 28.0915C439.761 27.7198 438.295 27.4513 436.808 27.2861L436.588 29.2739ZM440.709 30.0285C442.035 30.3694 443.235 30.8398 444.315 31.4356L445.281 29.6844C444.041 29.0002 442.681 28.4706 441.207 28.0915L440.709 30.0285ZM444.351 31.4544C445.391 31.9747 446.215 32.7131 446.837 33.6808L448.519 32.5992C447.701 31.3269 446.605 30.3453 445.245 29.6656L444.351 31.4544ZM446.837 33.6808C447.423 34.592 447.758 35.8462 447.758 37.52H449.758C449.758 35.5938 449.373 33.928 448.519 32.5992L446.837 33.6808ZM447.758 37.52C447.758 39.303 447.229 40.8176 446.181 42.1102L447.735 43.3698C449.087 41.7024 449.758 39.737 449.758 37.52H447.758ZM446.171 42.1231C445.145 43.4324 443.647 44.498 441.616 45.288L442.34 47.152C444.629 46.262 446.451 45.0076 447.745 43.3569L446.171 42.1231ZM441.631 45.2822C439.61 46.0307 437.153 46.42 434.238 46.42V48.42C437.323 48.42 440.026 48.0093 442.325 47.1577L441.631 45.2822ZM466.579 47L465.667 46.5896L465.032 48H466.579V47ZM485.479 5V4H484.832L484.567 4.58963L485.479 5ZM493.159 5L494.07 4.58855L493.805 4H493.159V5ZM512.119 47V48H513.667L513.03 46.5886L512.119 47ZM503.959 47L503.04 47.3946L503.3 48H503.959V47ZM487.699 9.14V8.14H486.181L486.78 9.53462L487.699 9.14ZM490.819 9.14L491.738 9.53339L492.335 8.14H490.819V9.14ZM474.619 47V48H475.279L475.538 47.3934L474.619 47ZM475.279 37.28L474.333 36.9554L473.879 38.28H475.279V37.28ZM477.379 31.16V30.16H476.665L476.433 30.8354L477.379 31.16ZM500.059 31.16L501.005 30.8354L500.773 30.16H500.059V31.16ZM502.159 37.28V38.28H503.559L503.105 36.9554L502.159 37.28ZM467.491 47.4104L486.391 5.41036L484.567 4.58963L465.667 46.5896L467.491 47.4104ZM485.479 6H493.159V4H485.479V6ZM492.247 5.41144L511.207 47.4114L513.03 46.5886L494.07 4.58855L492.247 5.41144ZM512.119 46H503.959V48H512.119V46ZM504.878 46.6054L488.618 8.74537L486.78 9.53462L503.04 47.3946L504.878 46.6054ZM487.699 10.14H490.819V8.14H487.699V10.14ZM489.9 8.7466L473.7 46.6066L475.538 47.3934L491.738 9.53339L489.9 8.7466ZM474.619 46H466.579V48H474.619V46ZM476.225 37.6046L478.325 31.4846L476.433 30.8354L474.333 36.9554L476.225 37.6046ZM477.379 32.16H500.059V30.16H477.379V32.16ZM499.113 31.4846L501.213 37.6046L503.105 36.9554L501.005 30.8354L499.113 31.4846ZM502.159 36.28H475.279V38.28H502.159V36.28ZM516.74 47H515.74V48H516.74V47ZM516.74 14.96V13.96H515.74V14.96H516.74ZM524.24 14.96H525.24V13.96H524.24V14.96ZM524.24 47V48H525.24V47H524.24ZM517.04 8.36L516.333 9.0671L516.341 9.07496L516.349 9.08264L517.04 8.36ZM517.04 2L517.731 2.72335L517.732 2.72264L517.04 2ZM523.94 1.94L523.25 2.66335L523.267 2.67938L523.284 2.6946L523.94 1.94ZM524 8.36L524.707 9.0671L524.715 9.05925L524.723 9.05122L524 8.36ZM517.74 47V14.96H515.74V47H517.74ZM516.74 15.96H524.24V13.96H516.74V15.96ZM523.24 14.96V47H525.24V14.96H523.24ZM524.24 46H516.74V48H524.24V46ZM520.52 8.68C519.35 8.68 518.446 8.32088 517.732 7.63736L516.349 9.08264C517.474 10.1591 518.891 10.68 520.52 10.68V8.68ZM517.747 7.65289C517.054 6.95966 516.72 6.1537 516.72 5.18H514.72C514.72 6.6863 515.266 8.00034 516.333 9.0671L517.747 7.65289ZM516.72 5.18C516.72 4.15731 517.06 3.36391 517.731 2.72335L516.35 1.27664C515.261 2.31609 514.72 3.64269 514.72 5.18H516.72ZM517.732 2.72264C518.446 2.03911 519.35 1.68 520.52 1.68V-0.320001C518.891 -0.320001 517.474 0.200885 516.349 1.27735L517.732 2.72264ZM520.52 1.68C521.705 1.68 522.584 2.02779 523.25 2.66335L524.631 1.21664C523.537 0.172202 522.136 -0.320001 520.52 -0.320001V1.68ZM523.284 2.6946C523.981 3.30099 524.32 4.04376 524.32 5H526.32C526.32 3.47623 525.739 2.17901 524.596 1.18539L523.284 2.6946ZM524.32 5C524.32 6.07299 523.973 6.94234 523.278 7.66877L524.723 9.05122C525.788 7.93765 526.32 6.567 526.32 5H524.32ZM523.293 7.65289C522.63 8.31571 521.74 8.68 520.52 8.68V10.68C522.18 10.68 523.61 10.1643 524.707 9.0671L523.293 7.65289ZM534.084 47H533.084V48H534.084V47ZM534.084 14.96V13.96H533.084V14.96H534.084ZM541.224 14.96H542.224V13.96H541.224V14.96ZM541.224 23.78L540.273 24.0896L542.224 23.78H541.224ZM540.384 21.2L539.47 20.7939L539.314 21.1446L539.433 21.5096L540.384 21.2ZM544.884 16.28L544.41 15.3995L544.403 15.4034L544.884 16.28ZM552.624 14.6H553.624V13.6H552.624V14.6ZM552.624 21.74L552.382 22.7101L553.624 23.0208V21.74H552.624ZM551.724 21.62L551.583 22.6099L551.653 22.62H551.724V21.62ZM544.104 24.08L544.803 24.7956L544.811 24.7871L544.104 24.08ZM541.584 47V48H542.584V47H541.584ZM535.084 47V14.96H533.084V47H535.084ZM534.084 15.96H541.224V13.96H534.084V15.96ZM540.224 14.96V23.78H542.224V14.96H540.224ZM542.175 23.4704L541.335 20.8904L539.433 21.5096L540.273 24.0896L542.175 23.4704ZM541.298 21.6061C542.171 19.6427 543.52 18.1695 545.365 17.1566L544.403 15.4034C542.168 16.6305 540.518 18.4373 539.47 20.7939L541.298 21.6061ZM545.358 17.1605C547.255 16.1392 549.661 15.6 552.624 15.6V13.6C549.427 13.6 546.673 14.1808 544.41 15.3995L545.358 17.1605ZM551.624 14.6V21.74H553.624V14.6H551.624ZM552.867 20.7699C552.481 20.6734 552.099 20.62 551.724 20.62V22.62C551.909 22.62 552.127 22.6466 552.382 22.7101L552.867 20.7699ZM551.865 20.6301C551.539 20.5834 551.212 20.56 550.884 20.56V22.56C551.116 22.56 551.349 22.5766 551.583 22.6099L551.865 20.6301ZM550.884 20.56C547.834 20.56 545.3 21.4694 543.397 23.3729L544.811 24.7871C546.268 23.3306 548.254 22.56 550.884 22.56V20.56ZM543.406 23.3644C541.467 25.2571 540.584 28.0197 540.584 31.46H542.584C542.584 28.3403 543.381 26.1829 544.803 24.7956L543.406 23.3644ZM540.584 31.46V47H542.584V31.46H540.584ZM541.584 46H534.084V48H541.584V46ZM569.606 45.62L569.114 46.4903L569.121 46.4942L569.606 45.62ZM564.506 40.22L563.615 40.673L563.619 40.6819L563.624 40.6906L564.506 40.22ZM564.446 21.74L563.558 21.2809L563.552 21.2928L564.446 21.74ZM569.486 16.4L569.966 17.2773L569.973 17.2738L569.979 17.2703L569.486 16.4ZM585.086 16.64L584.593 17.51L584.6 17.5135L585.086 16.64ZM590.846 22.34L589.979 22.8377L589.985 22.8483L590.846 22.34ZM590.846 39.68L589.982 39.1779L589.979 39.1823L590.846 39.68ZM585.086 45.38L584.6 44.5065L584.593 44.51L585.086 45.38ZM558.986 58.64H557.986V59.64H558.986V58.64ZM558.986 14.96V13.96H557.986V14.96H558.986ZM566.126 14.96H567.126V13.96H566.126V14.96ZM566.126 22.52L567.126 22.5482L567.126 22.5341V22.52H566.126ZM565.886 31.04L564.887 31.0118L564.885 31.0611L564.889 31.1102L565.886 31.04ZM566.486 39.56H567.486V39.5248L567.484 39.4897L566.486 39.56ZM566.486 58.64V59.64H567.486V58.64H566.486ZM580.706 39.8L580.221 38.9258L580.21 38.9318L580.706 39.8ZM584.126 36.32L585.002 36.8037V36.8037L584.126 36.32ZM584.126 25.64L583.251 26.1237L583.257 26.1336L584.126 25.64ZM580.706 22.16L580.21 23.0283L580.221 23.0342L580.706 22.16ZM571.046 22.16L570.561 21.2858L571.046 22.16ZM567.626 25.64L568.496 26.1336L568.502 26.1237L567.626 25.64ZM571.046 39.8L571.532 38.9258L571.046 39.8ZM576.746 46.42C574.307 46.42 572.096 45.859 570.092 44.7458L569.121 46.4942C571.437 47.781 573.986 48.42 576.746 48.42V46.42ZM570.099 44.7497C568.163 43.6539 566.59 42.002 565.389 39.7494L563.624 40.6906C564.983 43.238 566.81 45.1861 569.114 46.4903L570.099 44.7497ZM565.398 39.7669C564.25 37.5085 563.646 34.5963 563.646 30.98H561.646C561.646 34.8037 562.283 38.0515 563.615 40.673L565.398 39.7669ZM563.646 30.98C563.646 27.3167 564.232 24.4041 565.341 22.1872L563.552 21.2928C562.26 23.8759 561.646 27.1233 561.646 30.98H563.646ZM565.335 22.199C566.495 19.9543 568.041 18.3306 569.966 17.2773L569.006 15.5227C566.691 16.7894 564.878 18.7256 563.558 21.281L565.335 22.199ZM569.979 17.2703C571.932 16.1649 574.179 15.6 576.746 15.6V13.6C573.874 13.6 571.281 14.2351 568.994 15.5297L569.979 17.2703ZM576.746 15.6C579.759 15.6 582.364 16.247 584.593 17.51L585.579 15.77C583.008 14.313 580.054 13.6 576.746 13.6V15.6ZM584.6 17.5135C586.88 18.7844 588.669 20.554 589.979 22.8377L591.714 21.8423C590.224 19.246 588.173 17.2156 585.573 15.7665L584.6 17.5135ZM589.985 22.8483C591.32 25.1096 592.006 27.8077 592.006 30.98H594.006C594.006 27.5123 593.253 24.4504 591.708 21.8317L589.985 22.8483ZM592.006 30.98C592.006 34.1518 591.32 36.873 589.982 39.1779L591.711 40.1821C593.253 37.527 594.006 34.4482 594.006 30.98H592.006ZM589.979 39.1823C588.669 41.466 586.88 43.2356 584.6 44.5065L585.573 46.2535C588.173 44.8044 590.224 42.774 591.714 40.1777L589.979 39.1823ZM584.593 44.51C582.364 45.773 579.759 46.42 576.746 46.42V48.42C580.054 48.42 583.008 47.707 585.579 46.25L584.593 44.51ZM559.986 58.64V14.96H557.986V58.64H559.986ZM558.986 15.96H566.126V13.96H558.986V15.96ZM565.126 14.96V22.52H567.126V14.96H565.126ZM565.127 22.4918L564.887 31.0118L566.886 31.0682L567.126 22.5482L565.127 22.4918ZM564.889 31.1102L565.489 39.6302L567.484 39.4897L566.884 30.9697L564.889 31.1102ZM565.486 39.56V58.64H567.486V39.56H565.486ZM566.486 57.64H558.986V59.64H566.486V57.64ZM575.906 42C577.86 42 579.634 41.5643 581.203 40.6682L580.21 38.9318C578.978 39.6357 577.553 40 575.906 40V42ZM581.192 40.6742C582.805 39.7781 584.076 38.4785 585.002 36.8037L583.251 35.8363C582.497 37.2015 581.488 38.2219 580.221 38.9258L581.192 40.6742ZM585.002 36.8037C585.937 35.1116 586.386 33.1595 586.386 30.98H584.386C584.386 32.8805 583.996 34.4884 583.251 35.8363L585.002 36.8037ZM586.386 30.98C586.386 28.7652 585.939 26.807 584.996 25.1464L583.257 26.1336C583.994 27.433 584.386 29.0348 584.386 30.98H586.386ZM585.002 25.1563C584.076 23.4815 582.805 22.1819 581.192 21.2858L580.221 23.0342C581.488 23.7381 582.497 24.7585 583.251 26.1237L585.002 25.1563ZM581.203 21.2918C579.634 20.3957 577.86 19.96 575.906 19.96V21.96C577.553 21.96 578.978 22.3243 580.21 23.0282L581.203 21.2918ZM575.906 19.96C573.953 19.96 572.163 20.3958 570.561 21.2858L571.532 23.0342C572.81 22.3242 574.26 21.96 575.906 21.96V19.96ZM570.561 21.2858C568.948 22.1819 567.677 23.4815 566.751 25.1563L568.502 26.1237C569.256 24.7585 570.265 23.7381 571.532 23.0342L570.561 21.2858ZM566.757 25.1464C565.814 26.807 565.366 28.7652 565.366 30.98H567.366C567.366 29.0348 567.759 27.433 568.496 26.1336L566.757 25.1464ZM565.366 30.98C565.366 33.1595 565.816 35.1116 566.751 36.8037L568.502 35.8363C567.757 34.4884 567.366 32.8805 567.366 30.98H565.366ZM566.751 36.8037C567.677 38.4785 568.948 39.7781 570.561 40.6742L571.532 38.9258C570.265 38.2219 569.256 37.2015 568.502 35.8363L566.751 36.8037ZM570.561 40.6742C572.163 41.5642 573.953 42 575.906 42V40C574.26 40 572.81 39.6358 571.532 38.9258L570.561 40.6742ZM605.759 45.32L605.269 46.1916L605.279 46.1974L605.759 45.32ZM599.699 39.44L598.841 39.9525L599.699 39.44ZM599.699 22.52L600.554 23.0386L600.558 23.0325L599.699 22.52ZM605.759 16.7L606.239 17.5774L605.759 16.7ZM623.339 16.7L622.859 17.5774L622.865 17.5805L623.339 16.7ZM629.399 22.46L628.538 22.9683L628.544 22.9786L629.399 22.46ZM629.399 39.44L628.54 38.9275L628.534 38.9379L629.399 39.44ZM623.339 45.32L623.819 46.1974L623.824 46.1948L623.339 45.32ZM619.439 39.8L618.954 38.9258L619.439 39.8ZM622.799 36.32L621.924 35.8363L621.919 35.8452L621.914 35.8543L622.799 36.32ZM622.799 25.64L621.914 26.1057L621.922 26.1198L621.93 26.1336L622.799 25.64ZM619.439 22.16L619.925 21.2858L619.439 22.16ZM609.659 22.16L609.174 21.2858L609.163 21.2918L609.659 22.16ZM606.299 25.64L607.169 26.1336L607.174 26.1237L606.299 25.64ZM606.299 36.32L605.424 36.8037L606.299 36.32ZM609.659 39.8L609.163 40.6683L609.174 40.6742L609.659 39.8ZM614.519 46.42C611.386 46.42 608.634 45.7526 606.239 44.4426L605.279 46.1974C608.004 47.6874 611.093 48.42 614.519 48.42V46.42ZM606.249 44.4484C603.839 43.0924 601.947 41.2551 600.558 38.9275L598.841 39.9525C600.411 42.5849 602.56 44.6676 605.269 46.1916L606.249 44.4484ZM600.558 38.9275C599.179 36.6169 598.479 33.9771 598.479 30.98H596.479C596.479 34.3029 597.259 37.3031 598.841 39.9525L600.558 38.9275ZM598.479 30.98C598.479 27.9401 599.18 25.3039 600.554 23.0386L598.844 22.0014C597.258 24.6161 596.479 27.6199 596.479 30.98H598.479ZM600.558 23.0325C601.945 20.7074 603.834 18.8927 606.239 17.5774L605.279 15.8226C602.565 17.3073 600.413 19.3726 598.841 22.0075L600.558 23.0325ZM606.239 17.5774C608.634 16.2674 611.386 15.6 614.519 15.6V13.6C611.093 13.6 608.004 14.3326 605.279 15.8226L606.239 17.5774ZM614.519 15.6C617.695 15.6 620.466 16.2684 622.859 17.5774L623.819 15.8226C621.093 14.3316 617.984 13.6 614.519 13.6V15.6ZM622.865 17.5805C625.312 18.8978 627.195 20.6921 628.538 22.9683L630.26 21.9517C628.724 19.3479 626.567 17.3022 623.813 15.8195L622.865 17.5805ZM628.544 22.9786C629.917 25.2419 630.619 27.8976 630.619 30.98H632.619C632.619 27.5824 631.841 24.5581 630.254 21.9414L628.544 22.9786ZM630.619 30.98C630.619 33.9771 629.919 36.6169 628.541 38.9275L630.258 39.9525C631.839 37.3031 632.619 34.3029 632.619 30.98H630.619ZM628.534 38.9379C627.189 41.2557 625.303 43.0894 622.855 44.4452L623.824 46.1948C626.576 44.6706 628.73 42.5843 630.264 39.9421L628.534 38.9379ZM622.859 44.4426C620.466 45.7516 617.695 46.42 614.519 46.42V48.42C617.984 48.42 621.093 47.6884 623.819 46.1974L622.859 44.4426ZM614.519 42C616.509 42 618.32 41.566 619.925 40.6742L618.954 38.9258C617.679 39.634 616.21 40 614.519 40V42ZM619.925 40.6742C621.542 39.7756 622.798 38.4701 623.684 36.7857L621.914 35.8543C621.201 37.2099 620.216 38.2244 618.954 38.9258L619.925 40.6742ZM623.674 36.8037C624.61 35.1116 625.059 33.1595 625.059 30.98H623.059C623.059 32.8805 622.669 34.4884 621.924 35.8363L623.674 36.8037ZM625.059 30.98C625.059 28.7652 624.611 26.807 623.669 25.1464L621.93 26.1336C622.667 27.433 623.059 29.0348 623.059 30.98H625.059ZM623.684 25.1743C622.798 23.4899 621.542 22.1844 619.925 21.2858L618.954 23.0342C620.216 23.7356 621.201 24.75 621.914 26.1057L623.684 25.1743ZM619.925 21.2858C618.323 20.3958 616.533 19.96 614.579 19.96V21.96C616.225 21.96 617.676 22.3242 618.954 23.0342L619.925 21.2858ZM614.579 19.96C612.59 19.96 610.779 20.394 609.174 21.2858L610.145 23.0342C611.42 22.326 612.889 21.96 614.579 21.96V19.96ZM609.163 21.2918C607.592 22.1898 606.346 23.4886 605.424 25.1563L607.174 26.1237C607.933 24.7514 608.927 23.7302 610.155 23.0282L609.163 21.2918ZM605.43 25.1464C604.487 26.807 604.039 28.7652 604.039 30.98H606.039C606.039 29.0348 606.431 27.433 607.169 26.1336L605.43 25.1464ZM604.039 30.98C604.039 33.1595 604.489 35.1116 605.424 36.8037L607.174 35.8363C606.43 34.4884 606.039 32.8805 606.039 30.98H604.039ZM605.424 36.8037C606.346 38.4714 607.592 39.7702 609.163 40.6682L610.155 38.9318C608.927 38.2298 607.933 37.2086 607.174 35.8363L605.424 36.8037ZM609.174 40.6742C610.776 41.5642 612.565 42 614.519 42V40C612.873 40 611.423 39.6358 610.145 38.9258L609.174 40.6742ZM644.011 45.38L643.513 46.2474L643.522 46.2522L643.53 46.2568L644.011 45.38ZM638.251 39.62L639.118 39.1223L638.251 39.62ZM638.251 22.34L639.118 22.8377L638.251 22.34ZM644.011 16.64L643.53 15.7632L643.524 15.7665L644.011 16.64ZM659.551 16.4L659.058 17.2703L659.065 17.2738L659.071 17.2773L659.551 16.4ZM664.591 21.74L663.703 22.199L664.591 21.74ZM664.651 40.22L665.546 40.6672L665.548 40.6613L664.651 40.22ZM659.671 45.62L659.178 44.7497L659.671 45.62ZM658.051 39.8L657.565 38.9258L657.555 38.9318L658.051 39.8ZM661.471 36.32L660.606 35.819L660.601 35.8276L660.596 35.8363L661.471 36.32ZM661.471 25.64L660.596 26.1237L660.604 26.1375L660.612 26.1511L661.471 25.64ZM658.051 22.16L657.555 23.0283L657.565 23.0342L658.051 22.16ZM648.391 22.16L647.905 21.2858L647.895 21.2918L648.391 22.16ZM644.971 25.64L644.106 25.1389L644.101 25.1464L644.971 25.64ZM644.971 36.32L644.096 36.8037L644.101 36.8124L644.106 36.821L644.971 36.32ZM648.391 39.8L647.895 40.6683L647.905 40.6742L648.391 39.8ZM662.971 47H661.971V48H662.971V47ZM662.971 39.44L661.972 39.4048L661.971 39.4224V39.44H662.971ZM663.271 30.92L664.27 30.9552L664.272 30.9024L664.269 30.8498L663.271 30.92ZM662.671 22.4H661.671V22.4352L661.674 22.4702L662.671 22.4ZM662.671 2.48V1.48H661.671V2.48H662.671ZM670.111 2.48H671.111V1.48H670.111V2.48ZM670.111 47V48H671.111V47H670.111ZM652.351 46.42C649.424 46.42 646.812 45.7753 644.492 44.5032L643.53 46.2568C646.171 47.7047 649.118 48.42 652.351 48.42V46.42ZM644.509 44.5126C642.223 43.2009 640.43 41.4085 639.118 39.1223L637.384 40.1177C638.872 42.7115 640.92 44.7591 643.513 46.2474L644.509 44.5126ZM639.118 39.1223C637.82 36.8591 637.151 34.157 637.151 30.98H635.151C635.151 34.443 635.882 37.5009 637.384 40.1177L639.118 39.1223ZM637.151 30.98C637.151 27.803 637.82 25.1009 639.118 22.8377L637.384 21.8423C635.882 24.4591 635.151 27.517 635.151 30.98H637.151ZM639.118 22.8377C640.429 20.554 642.218 18.7844 644.498 17.5135L643.524 15.7665C640.924 17.2156 638.873 19.246 637.384 21.8423L639.118 22.8377ZM644.492 17.5168C646.812 16.2447 649.424 15.6 652.351 15.6V13.6C649.118 13.6 646.171 14.3153 643.53 15.7632L644.492 17.5168ZM652.351 15.6C654.876 15.6 657.103 16.1636 659.058 17.2703L660.044 15.5297C657.759 14.2364 655.186 13.6 652.351 13.6V15.6ZM659.071 17.2773C660.996 18.3306 662.543 19.9543 663.703 22.199L665.479 21.281C664.159 18.7256 662.346 16.7894 660.031 15.5227L659.071 17.2773ZM663.703 22.199C664.846 24.4126 665.451 27.3206 665.451 30.98H667.451C667.451 27.1193 666.816 23.8674 665.479 21.281L663.703 22.199ZM665.451 30.98C665.451 34.6003 664.866 37.5169 663.754 39.7787L665.548 40.6613C666.836 38.0431 667.451 34.7997 667.451 30.98H665.451ZM663.757 39.7728C662.636 42.0138 661.108 43.6575 659.178 44.7497L660.164 46.4903C662.474 45.1825 664.266 43.2262 665.546 40.6672L663.757 39.7728ZM659.178 44.7497C657.228 45.8539 654.962 46.42 652.351 46.42V48.42C655.26 48.42 657.874 47.7861 660.164 46.4903L659.178 44.7497ZM653.251 42C655.204 42 656.979 41.5643 658.547 40.6682L657.555 38.9318C656.323 39.6357 654.898 40 653.251 40V42ZM658.537 40.6742C660.15 39.7781 661.421 38.4785 662.346 36.8037L660.596 35.8363C659.841 37.2015 658.832 38.2219 657.565 38.9258L658.537 40.6742ZM662.337 36.821C663.318 35.1257 663.791 33.1672 663.791 30.98H661.791C661.791 32.8728 661.384 34.4743 660.606 35.819L662.337 36.821ZM663.791 30.98C663.791 28.7576 663.32 26.7929 662.331 25.1289L660.612 26.1511C661.382 27.4471 661.791 29.0424 661.791 30.98H663.791ZM662.346 25.1563C661.421 23.4815 660.15 22.1819 658.537 21.2858L657.565 23.0342C658.832 23.7381 659.841 24.7585 660.596 26.1237L662.346 25.1563ZM658.547 21.2918C656.979 20.3957 655.204 19.96 653.251 19.96V21.96C654.898 21.96 656.323 22.3243 657.555 23.0282L658.547 21.2918ZM653.251 19.96C651.297 19.96 649.508 20.3958 647.905 21.2858L648.877 23.0342C650.155 22.3242 651.605 21.96 653.251 21.96V19.96ZM647.895 21.2918C646.328 22.1871 645.066 23.4802 644.106 25.139L645.837 26.141C646.636 24.7598 647.654 23.7329 648.887 23.0282L647.895 21.2918ZM644.101 25.1464C643.159 26.807 642.711 28.7652 642.711 30.98H644.711C644.711 29.0348 645.103 27.433 645.841 26.1336L644.101 25.1464ZM642.711 30.98C642.711 33.1595 643.161 35.1116 644.096 36.8037L645.846 35.8363C645.101 34.4884 644.711 32.8805 644.711 30.98H642.711ZM644.106 36.821C645.066 38.4798 646.328 39.7729 647.895 40.6682L648.887 38.9318C647.654 38.2271 646.636 37.2002 645.837 35.819L644.106 36.821ZM647.905 40.6742C649.508 41.5642 651.297 42 653.251 42V40C651.605 40 650.155 39.6358 648.877 38.9258L647.905 40.6742ZM663.971 47V39.44H661.971V47H663.971ZM663.97 39.4752L664.27 30.9552L662.272 30.8848L661.972 39.4048L663.97 39.4752ZM664.269 30.8498L663.669 22.3298L661.674 22.4702L662.274 30.9902L664.269 30.8498ZM663.671 22.4V2.48H661.671V22.4H663.671ZM662.671 3.48H670.111V1.48H662.671V3.48ZM669.111 2.48V47H671.111V2.48H669.111ZM670.111 46H662.971V48H670.111V46Z" fill="white" mask="url(#path-1-outside-1_1_154)"/>
</svg>
