<svg width="127" height="27" viewBox="0 0 127 27" fill="none" xmlns="http://www.w3.org/2000/svg">
<path d="M6.136 21V5.66H0.104V2.8H15.548V5.66H9.516V21H6.136ZM22.5908 21.182C21.1694 21.182 19.9041 20.8787 18.7948 20.272C17.6854 19.648 16.8101 18.7987 16.1688 17.724C15.5274 16.6493 15.2068 15.4273 15.2068 14.058C15.2068 12.6713 15.5274 11.4493 16.1688 10.392C16.8101 9.31733 17.6854 8.47667 18.7948 7.87C19.9041 7.26333 21.1694 6.96 22.5908 6.96C24.0294 6.96 25.3034 7.26333 26.4128 7.87C27.5394 8.47667 28.4148 9.30867 29.0388 10.366C29.6801 11.4233 30.0008 12.654 30.0008 14.058C30.0008 15.4273 29.6801 16.6493 29.0388 17.724C28.4148 18.7987 27.5394 19.648 26.4128 20.272C25.3034 20.8787 24.0294 21.182 22.5908 21.182ZM22.5908 18.4C23.3881 18.4 24.0988 18.2267 24.7228 17.88C25.3468 17.5333 25.8321 17.0307 26.1788 16.372C26.5428 15.7133 26.7248 14.942 26.7248 14.058C26.7248 13.1567 26.5428 12.3853 26.1788 11.744C25.8321 11.0853 25.3468 10.5827 24.7228 10.236C24.0988 9.88933 23.3968 9.716 22.6168 9.716C21.8194 9.716 21.1088 9.88933 20.4848 10.236C19.8781 10.5827 19.3928 11.0853 19.0288 11.744C18.6648 12.3853 18.4828 13.1567 18.4828 14.058C18.4828 14.942 18.6648 15.7133 19.0288 16.372C19.3928 17.0307 19.8781 17.5333 20.4848 17.88C21.1088 18.2267 21.8108 18.4 22.5908 18.4ZM40.8046 21.182C39.6779 21.182 38.6466 20.922 37.7106 20.402C36.7919 19.882 36.0552 19.102 35.5006 18.062C34.9632 17.0047 34.6946 15.67 34.6946 14.058C34.6946 12.4287 34.9546 11.094 35.4746 10.054C36.0119 9.014 36.7399 8.24267 37.6586 7.74C38.5772 7.22 39.6259 6.96 40.8046 6.96C42.1739 6.96 43.3786 7.25467 44.4186 7.844C45.4759 8.43333 46.3079 9.25667 46.9146 10.314C47.5386 11.3713 47.8506 12.6193 47.8506 14.058C47.8506 15.4967 47.5386 16.7533 46.9146 17.828C46.3079 18.8853 45.4759 19.7087 44.4186 20.298C43.3786 20.8873 42.1739 21.182 40.8046 21.182ZM33.1086 26.044V7.116H36.2026V10.392L36.0986 14.084L36.3586 17.776V26.044H33.1086ZM40.4406 18.4C41.2206 18.4 41.9139 18.2267 42.5206 17.88C43.1446 17.5333 43.6386 17.0307 44.0026 16.372C44.3666 15.7133 44.5486 14.942 44.5486 14.058C44.5486 13.1567 44.3666 12.3853 44.0026 11.744C43.6386 11.0853 43.1446 10.5827 42.5206 10.236C41.9139 9.88933 41.2206 9.716 40.4406 9.716C39.6606 9.716 38.9586 9.88933 38.3346 10.236C37.7106 10.5827 37.2166 11.0853 36.8526 11.744C36.4886 12.3853 36.3066 13.1567 36.3066 14.058C36.3066 14.942 36.4886 15.7133 36.8526 16.372C37.2166 17.0307 37.7106 17.5333 38.3346 17.88C38.9586 18.2267 39.6606 18.4 40.4406 18.4ZM58.4303 21V2.8H65.9183C67.5303 2.8 68.9083 3.06 70.0523 3.58C71.2137 4.1 72.1063 4.84533 72.7303 5.816C73.3543 6.78667 73.6663 7.93933 73.6663 9.274C73.6663 10.6087 73.3543 11.7613 72.7303 12.732C72.1063 13.7027 71.2137 14.448 70.0523 14.968C68.9083 15.488 67.5303 15.748 65.9183 15.748H60.3023L61.8103 14.162V21H58.4303ZM61.8103 14.526L60.3023 12.888H65.7623C67.253 12.888 68.371 12.576 69.1163 11.952C69.879 11.3107 70.2603 10.418 70.2603 9.274C70.2603 8.11267 69.879 7.22 69.1163 6.596C68.371 5.972 67.253 5.66 65.7623 5.66H60.3023L61.8103 3.996V14.526ZM76.9836 21V7.116H80.2336V21H76.9836ZM78.6216 4.828C78.0149 4.828 77.5122 4.63733 77.1136 4.256C76.7322 3.87467 76.5416 3.41533 76.5416 2.878C76.5416 2.32333 76.7322 1.864 77.1136 1.5C77.5122 1.11867 78.0149 0.928 78.6216 0.928C79.2282 0.928 79.7222 1.11 80.1036 1.474C80.5022 1.82067 80.7016 2.26267 80.7016 2.8C80.7016 3.372 80.5109 3.85733 80.1296 4.256C79.7482 4.63733 79.2456 4.828 78.6216 4.828ZM90.8692 21.182C89.4132 21.182 88.1132 20.8787 86.9692 20.272C85.8425 19.648 84.9585 18.7987 84.3172 17.724C83.6759 16.6493 83.3552 15.4273 83.3552 14.058C83.3552 12.6713 83.6759 11.4493 84.3172 10.392C84.9585 9.31733 85.8425 8.47667 86.9692 7.87C88.1132 7.26333 89.4132 6.96 90.8692 6.96C92.2212 6.96 93.4085 7.23733 94.4312 7.792C95.4712 8.32933 96.2599 9.12667 96.7972 10.184L94.3012 11.64C93.8852 10.9813 93.3739 10.496 92.7672 10.184C92.1779 9.872 91.5365 9.716 90.8432 9.716C90.0459 9.716 89.3265 9.88933 88.6852 10.236C88.0439 10.5827 87.5412 11.0853 87.1772 11.744C86.8132 12.3853 86.6312 13.1567 86.6312 14.058C86.6312 14.9593 86.8132 15.7393 87.1772 16.398C87.5412 17.0393 88.0439 17.5333 88.6852 17.88C89.3265 18.2267 90.0459 18.4 90.8432 18.4C91.5365 18.4 92.1779 18.244 92.7672 17.932C93.3739 17.62 93.8852 17.1347 94.3012 16.476L96.7972 17.932C96.2599 18.972 95.4712 19.778 94.4312 20.35C93.4085 20.9047 92.2212 21.182 90.8692 21.182ZM102.132 17.906L102.21 13.824L109.464 7.116H113.364L107.202 13.304L105.486 14.734L102.132 17.906ZM99.4797 21V1.708H102.73V21H99.4797ZM109.958 21L104.888 14.734L106.942 12.134L113.91 21H109.958ZM119.867 21.182C118.706 21.182 117.588 21.0347 116.513 20.74C115.456 20.428 114.615 20.0553 113.991 19.622L115.239 17.152C115.863 17.5507 116.609 17.88 117.475 18.14C118.342 18.4 119.209 18.53 120.075 18.53C121.098 18.53 121.835 18.3913 122.285 18.114C122.753 17.8367 122.987 17.464 122.987 16.996C122.987 16.6147 122.831 16.3287 122.519 16.138C122.207 15.93 121.8 15.774 121.297 15.67C120.795 15.566 120.231 15.4707 119.607 15.384C119.001 15.2973 118.385 15.1847 117.761 15.046C117.155 14.89 116.6 14.6733 116.097 14.396C115.595 14.1013 115.187 13.7113 114.875 13.226C114.563 12.7407 114.407 12.0993 114.407 11.302C114.407 10.418 114.659 9.65533 115.161 9.014C115.664 8.35533 116.366 7.85267 117.267 7.506C118.186 7.142 119.269 6.96 120.517 6.96C121.453 6.96 122.398 7.064 123.351 7.272C124.305 7.48 125.093 7.77467 125.717 8.156L124.469 10.626C123.811 10.2273 123.143 9.95867 122.467 9.82C121.809 9.664 121.15 9.586 120.491 9.586C119.503 9.586 118.767 9.73333 118.281 10.028C117.813 10.3227 117.579 10.6953 117.579 11.146C117.579 11.562 117.735 11.874 118.047 12.082C118.359 12.29 118.767 12.4547 119.269 12.576C119.772 12.6973 120.327 12.8013 120.933 12.888C121.557 12.9573 122.173 13.07 122.779 13.226C123.386 13.382 123.941 13.5987 124.443 13.876C124.963 14.136 125.379 14.5087 125.691 14.994C126.003 15.4793 126.159 16.112 126.159 16.892C126.159 17.7587 125.899 18.5127 125.379 19.154C124.877 19.7953 124.157 20.298 123.221 20.662C122.285 21.0087 121.167 21.182 119.867 21.182Z" fill="white"/>
</svg>
