<svg xmlns="http://www.w3.org/2000/svg" fill="none" viewBox="0 0 39 21">
  <path fill="#2B2626" d="M5.88 20.52V.779999h1.722V20.52H5.88Zm.651-2.31c-1.148 0-2.247-.161-3.297-.483-1.05-.336-1.883-.763-2.499-1.281l.945-2.121c.588.462 1.316.847 2.184 1.155.868.308 1.757.462 2.667.462.77 0 1.393-.084 1.869-.252.476-.168.826-.392 1.05-.672.224-.294.336-.623.336-.987 0-.448-.161-.805-.483-1.071-.322-.28-.742-.497-1.26-.651-.504-.168-1.071-.322-1.701-.462-.616-.14-1.239-.301-1.869-.483-.616-.196-1.183-.441-1.701-.735-.504-.308-.917-.714-1.239-1.218-.322-.504-.483-1.148-.483-1.932 0-.798.21-1.526.63-2.184.434-.672 1.085-1.204 1.953-1.596.882-.406 1.995-.609 3.339-.609.882 0 1.757.112 2.625.336.868.224 1.624.546 2.268.966l-.861 2.121c-.658-.392-1.337-.679-2.037-.861-.7-.196-1.372-.294-2.016-.294-.756 0-1.372.091-1.848.273-.462.182-.805.42-1.029.714-.21.294-.315.63-.315 1.008 0 .448.154.812.462 1.092.322.266.735.476 1.239.63.518.154 1.092.308 1.722.462.63.14 1.253.301 1.869.483.63.182 1.197.42 1.701.714.518.294.931.693 1.239 1.197.322.504.483 1.141.483 1.911 0 .784-.217 1.512-.651 2.184-.42.658-1.071 1.19-1.953 1.596-.882.392-1.995.588-3.339.588Zm7.411-.21v-1.827l5.838-5.544c.49-.462.854-.868 1.092-1.218.238-.35.392-.672.462-.966.084-.308.126-.595.126-.861 0-.672-.231-1.19-.693-1.554-.462-.378-1.141-.567-2.037-.567-.714 0-1.365.126-1.953.378-.574.252-1.071.637-1.491 1.155l-1.911-1.47c.574-.77 1.344-1.365 2.31-1.785.98-.434 2.072-.651 3.276-.651 1.064 0 1.988.175 2.772.525.798.336 1.407.819 1.827 1.449.434.63.651 1.379.651 2.247 0 .476-.063.952-.189 1.428-.126.462-.364.952-.714 1.47s-.861 1.099-1.533 1.743l-5.019 4.767-.567-1.029h8.589V18H13.942Zm18.5437.21c-1.162 0-2.212-.294-3.15-.882-.924-.588-1.652-1.442-2.184-2.562-.532-1.134-.798-2.506-.798-4.116 0-1.61.266-2.975.798-4.095.532-1.134 1.26-1.995 2.184-2.583.938-.588 1.988-.882 3.15-.882 1.176 0 2.226.294 3.15.882.924.588 1.652 1.449 2.184 2.583.546 1.12.819 2.485.819 4.095 0 1.61-.273 2.982-.819 4.116-.532 1.12-1.26 1.974-2.184 2.562-.924.588-1.974.882-3.15.882Zm0-2.373c.686 0 1.281-.182 1.785-.546.504-.378.896-.952 1.176-1.722.294-.77.441-1.743.441-2.919 0-1.19-.147-2.163-.441-2.919-.28-.77-.672-1.337-1.176-1.701-.504-.378-1.099-.567-1.785-.567-.658 0-1.246.189-1.764.567-.504.364-.903.931-1.197 1.701-.28.756-.42 1.729-.42 2.919 0 1.176.14 2.149.42 2.919.294.77.693 1.344 1.197 1.722.518.364 1.106.546 1.764.546Z"/>
</svg>